<svg xmlns="http://www.w3.org/2000/svg" xmlns:xlink="http://www.w3.org/1999/xlink" width="100" zoomAndPan="magnify" viewBox="0 0 75 74.999997" height="100" preserveAspectRatio="xMidYMid meet" version="1.0"><defs><filter x="0%" y="0%" width="100%" height="100%" id="cd6f00ccf8"><feColorMatrix values="0 0 0 0 1 0 0 0 0 1 0 0 0 0 1 0 0 0 1 0" color-interpolation-filters="sRGB"/></filter><clipPath id="fe70cbe4fa"><path d="M 40 42 L 68 42 L 68 51 L 40 51 Z M 40 42 " clip-rule="nonzero"/></clipPath><clipPath id="d199832777"><path d="M 39.730469 43.75 L 64.929688 34.050781 L 69.238281 45.25 L 44.042969 54.949219 Z M 39.730469 43.75 " clip-rule="nonzero"/></clipPath><clipPath id="e6af4d310d"><path d="M 64.699219 34.136719 L 39.5 43.839844 L 43.8125 55.039062 L 69.007812 45.335938 Z M 64.699219 34.136719 " clip-rule="nonzero"/></clipPath><clipPath id="2bc5c9a2ec"><path d="M 46 34 L 65 34 L 65 46 L 46 46 Z M 46 34 " clip-rule="nonzero"/></clipPath><clipPath id="9bff8c8e81"><path d="M 39.730469 43.75 L 64.929688 34.050781 L 69.238281 45.25 L 44.042969 54.949219 Z M 39.730469 43.75 " clip-rule="nonzero"/></clipPath><clipPath id="6e075d8f3b"><path d="M 64.699219 34.136719 L 39.5 43.839844 L 43.8125 55.039062 L 69.007812 45.335938 Z M 64.699219 34.136719 " clip-rule="nonzero"/></clipPath><clipPath id="8b40d53924"><path d="M 20.621094 22.53125 L 54.113281 22.53125 L 54.113281 47.578125 L 20.621094 47.578125 Z M 20.621094 22.53125 " clip-rule="nonzero"/></clipPath><clipPath id="2b3ffc031c"><path d="M 23.484375 13.335938 L 54.367188 13.335938 L 54.367188 29.960938 L 23.484375 29.960938 Z M 23.484375 13.335938 " clip-rule="nonzero"/></clipPath><clipPath id="266eacfaa4"><path d="M 21.714844 15.019531 L 53.214844 15.019531 L 53.214844 45.769531 L 21.714844 45.769531 Z M 21.714844 15.019531 " clip-rule="nonzero"/></clipPath><mask id="7689a5c31e"><g filter="url(#cd6f00ccf8)"><rect x="-7.5" width="90" fill="#000000" y="-7.5" height="89.999996" fill-opacity="0.8"/></g></mask><clipPath id="a95deb13a5"><path d="M 0.714844 0.0195312 L 32.214844 0.0195312 L 32.214844 30.769531 L 0.714844 30.769531 Z M 0.714844 0.0195312 " clip-rule="nonzero"/></clipPath><clipPath id="88aa12e6a0"><rect x="0" width="33" y="0" height="31"/></clipPath><clipPath id="631dd8a292"><path d="M 25.421875 18.523438 L 50 18.523438 L 50 42.523438 L 25.421875 42.523438 Z M 25.421875 18.523438 " clip-rule="nonzero"/></clipPath><clipPath id="60cd4128fd"><path d="M 37 20 L 50.921875 20 L 50.921875 31 L 37 31 Z M 37 20 " clip-rule="nonzero"/></clipPath></defs><rect x="-7.5" width="90" fill="#ffffff" y="-7.5" height="89.999996" fill-opacity="1"/><rect x="-7.5" width="90" fill="#ffffff" y="-7.5" height="89.999996" fill-opacity="1"/><g clip-path="url(#fe70cbe4fa)"><g clip-path="url(#d199832777)"><g clip-path="url(#e6af4d310d)"><path fill="#148a38" d="M 67.519531 42.429688 C 67.519531 42.429688 60.074219 44.582031 53.820312 46.785156 C 47.5625 48.984375 40.722656 46.289062 40.722656 46.289062 C 40.722656 46.289062 54.726562 58.097656 67.519531 42.429688 " fill-opacity="1" fill-rule="nonzero"/></g></g></g><g clip-path="url(#2bc5c9a2ec)"><g clip-path="url(#9bff8c8e81)"><g clip-path="url(#6e075d8f3b)"><path fill="#ff8f1f" d="M 64.6875 34.144531 C 64.6875 34.144531 59.929688 37.917969 56.046875 41.375 C 52.167969 44.835938 46.40625 44.914062 46.40625 44.914062 C 46.40625 44.914062 60.074219 49.308594 64.6875 34.144531 " fill-opacity="1" fill-rule="nonzero"/></g></g></g><g clip-path="url(#8b40d53924)"><path fill="#ff8f1f" d="M 53.960938 32.027344 C 53.875 32.683594 53.769531 33.214844 53.660156 33.679688 C 53.632812 33.796875 53.609375 33.910156 53.578125 34.015625 C 53.550781 34.125 53.519531 34.230469 53.492188 34.335938 C 53.460938 34.441406 53.433594 34.542969 53.402344 34.640625 C 53.375 34.742188 53.34375 34.839844 53.3125 34.941406 C 53 35.921875 52.601562 36.863281 52.109375 37.765625 C 52.148438 37.71875 52.183594 37.667969 52.222656 37.621094 C 52.257812 37.574219 52.292969 37.527344 52.328125 37.480469 C 52.398438 37.386719 52.46875 37.289062 52.535156 37.191406 C 52.605469 37.089844 52.675781 36.992188 52.746094 36.878906 C 52.816406 36.769531 52.890625 36.65625 52.960938 36.527344 C 53.105469 36.289062 53.335938 35.78125 53.511719 35.324219 C 53.679688 34.890625 53.800781 34.539062 53.886719 34.289062 C 53.96875 34.039062 54.019531 33.894531 54.035156 33.882812 C 54.046875 33.878906 54.046875 33.902344 54.039062 33.964844 C 54.03125 34.03125 54.011719 34.128906 53.980469 34.261719 C 53.921875 34.535156 53.8125 34.960938 53.613281 35.550781 C 53.570312 35.6875 53.546875 35.78125 53.535156 35.863281 C 53.523438 35.949219 53.523438 36.019531 53.503906 36.109375 C 53.554688 35.996094 53.59375 35.886719 53.636719 35.785156 C 53.679688 35.683594 53.71875 35.585938 53.753906 35.496094 C 53.785156 35.402344 53.820312 35.320312 53.847656 35.242188 C 53.878906 35.164062 53.902344 35.09375 53.925781 35.027344 C 53.972656 34.898438 54.007812 34.796875 54.035156 34.726562 C 54.058594 34.65625 54.074219 34.617188 54.082031 34.609375 C 54.09375 34.597656 54.070312 34.714844 54 34.984375 C 53.964844 35.117188 53.917969 35.285156 53.851562 35.492188 C 53.816406 35.597656 53.78125 35.710938 53.738281 35.832031 C 53.695312 35.957031 53.652344 36.089844 53.597656 36.230469 C 53.167969 37.382812 52.660156 38.414062 52.09375 39.363281 C 51.523438 40.3125 50.890625 41.175781 50.179688 41.976562 C 49.75 42.460938 49.296875 42.914062 48.828125 43.339844 C 48.359375 43.765625 47.871094 44.164062 47.363281 44.535156 C 46.855469 44.90625 46.324219 45.25 45.769531 45.566406 C 45.21875 45.878906 44.640625 46.171875 44.039062 46.429688 C 43.917969 46.476562 43.777344 46.535156 43.621094 46.59375 C 43.464844 46.648438 43.300781 46.710938 43.125 46.761719 C 43.035156 46.792969 42.945312 46.820312 42.855469 46.847656 C 42.765625 46.875 42.675781 46.898438 42.582031 46.925781 C 42.539062 46.941406 42.492188 46.953125 42.445312 46.964844 C 42.402344 46.976562 42.355469 46.988281 42.308594 47 C 42.21875 47.023438 42.128906 47.046875 42.042969 47.070312 C 40.953125 47.34375 39.832031 47.507812 38.703125 47.558594 C 37.574219 47.613281 36.4375 47.558594 35.308594 47.386719 C 34.179688 47.214844 33.0625 46.929688 31.980469 46.53125 C 30.898438 46.128906 29.851562 45.617188 28.867188 44.996094 C 26.558594 43.550781 24.597656 41.5625 23.179688 39.242188 C 22.46875 38.082031 21.898438 36.835938 21.472656 35.546875 C 21.054688 34.253906 20.785156 32.917969 20.675781 31.570312 C 20.632812 31.054688 20.617188 30.554688 20.621094 30.066406 C 20.628906 29.578125 20.652344 29.105469 20.699219 28.648438 C 20.742188 28.191406 20.804688 27.75 20.882812 27.328125 C 20.902344 27.222656 20.925781 27.117188 20.945312 27.015625 C 20.957031 26.964844 20.964844 26.910156 20.976562 26.859375 C 20.988281 26.808594 21 26.757812 21.011719 26.707031 C 21.035156 26.609375 21.054688 26.507812 21.082031 26.410156 C 21.105469 26.3125 21.132812 26.214844 21.15625 26.117188 C 21.179688 26.023438 21.210938 25.929688 21.238281 25.835938 C 21.265625 25.742188 21.289062 25.648438 21.320312 25.558594 C 21.378906 25.378906 21.433594 25.203125 21.496094 25.03125 C 21.527344 24.945312 21.558594 24.863281 21.589844 24.777344 C 21.621094 24.695312 21.652344 24.617188 21.683594 24.535156 C 21.703125 24.496094 21.71875 24.457031 21.734375 24.417969 C 21.75 24.378906 21.765625 24.339844 21.78125 24.300781 C 21.816406 24.222656 21.847656 24.148438 21.882812 24.070312 C 22.148438 23.476562 22.429688 22.96875 22.699219 22.546875 C 22.214844 23.589844 21.828125 24.699219 21.5625 25.832031 C 21.296875 26.964844 21.152344 28.121094 21.128906 29.25 C 21.101562 30.636719 21.257812 31.882812 21.542969 33.128906 C 21.6875 33.753906 21.863281 34.378906 22.085938 35.019531 C 22.308594 35.660156 22.570312 36.324219 22.898438 37.011719 C 23.097656 37.429688 23.351562 37.785156 23.574219 38.09375 C 23.609375 38.140625 23.640625 38.183594 23.671875 38.226562 C 23.703125 38.265625 23.730469 38.300781 23.757812 38.335938 C 23.816406 38.40625 23.867188 38.464844 23.917969 38.523438 C 23.972656 38.582031 24.023438 38.636719 24.074219 38.695312 C 24.128906 38.757812 24.1875 38.820312 24.25 38.894531 C 24.316406 38.96875 24.382812 39.054688 24.464844 39.15625 C 24.507812 39.207031 24.550781 39.261719 24.597656 39.320312 C 24.644531 39.378906 24.691406 39.441406 24.75 39.511719 C 24.804688 39.578125 24.863281 39.652344 24.925781 39.734375 C 24.988281 39.8125 25.054688 39.898438 25.128906 39.992188 C 25.277344 40.175781 25.449219 40.382812 25.652344 40.621094 C 25.8125 40.714844 26.023438 40.871094 26.3125 41.101562 C 26.601562 41.328125 26.972656 41.636719 27.46875 42.011719 C 27.523438 42.054688 27.507812 42.011719 27.445312 41.933594 C 27.414062 41.890625 27.371094 41.839844 27.324219 41.789062 C 27.277344 41.734375 27.222656 41.671875 27.164062 41.613281 C 26.808594 41.25 26.445312 40.847656 26.121094 40.441406 C 25.792969 40.03125 25.503906 39.617188 25.269531 39.230469 C 25.605469 39.707031 25.972656 40.167969 26.351562 40.601562 C 26.660156 40.949219 26.984375 41.300781 27.324219 41.625 C 27.660156 41.949219 28.003906 42.25 28.339844 42.5 C 28.785156 42.832031 29.0625 42.96875 29.417969 43.15625 C 29.460938 43.179688 29.507812 43.207031 29.554688 43.230469 C 29.601562 43.257812 29.648438 43.285156 29.703125 43.3125 C 29.804688 43.367188 29.917969 43.429688 30.042969 43.5 C 30.105469 43.535156 30.175781 43.574219 30.246094 43.613281 C 30.316406 43.65625 30.390625 43.695312 30.472656 43.742188 C 30.550781 43.789062 30.636719 43.835938 30.726562 43.886719 C 30.773438 43.910156 30.820312 43.9375 30.867188 43.964844 C 30.917969 43.992188 30.964844 44.015625 31.019531 44.046875 C 31.109375 44.070312 31.207031 44.101562 31.304688 44.128906 C 31.40625 44.15625 31.507812 44.1875 31.601562 44.210938 C 31.792969 44.261719 31.960938 44.296875 32.050781 44.296875 C 32.101562 44.296875 32.058594 44.253906 31.957031 44.183594 C 31.855469 44.113281 31.699219 44.023438 31.519531 43.921875 C 31.390625 43.855469 31.246094 43.773438 31.09375 43.691406 C 31.015625 43.648438 30.9375 43.601562 30.859375 43.554688 C 30.816406 43.535156 30.777344 43.511719 30.738281 43.488281 C 30.695312 43.464844 30.65625 43.441406 30.617188 43.414062 C 30.292969 43.226562 29.96875 43.011719 29.695312 42.816406 C 29.253906 42.496094 28.933594 42.214844 28.582031 41.894531 C 28.65625 41.953125 28.722656 42 28.777344 42.039062 C 28.832031 42.078125 28.878906 42.113281 28.917969 42.136719 C 29 42.1875 29.050781 42.214844 29.082031 42.222656 C 29.144531 42.242188 29.132812 42.203125 29.148438 42.183594 C 29.160156 42.160156 29.195312 42.15625 29.347656 42.25 C 29.503906 42.335938 29.773438 42.53125 30.285156 42.851562 C 30.359375 42.894531 30.460938 42.953125 30.578125 43.011719 C 30.695312 43.070312 30.824219 43.136719 30.945312 43.191406 C 31.0625 43.242188 31.171875 43.289062 31.25 43.320312 C 31.328125 43.347656 31.371094 43.363281 31.359375 43.351562 C 31.207031 43.207031 31.199219 43.152344 31.289062 43.167969 C 31.335938 43.175781 31.410156 43.199219 31.503906 43.238281 C 31.550781 43.257812 31.601562 43.28125 31.660156 43.304688 C 31.71875 43.328125 31.785156 43.355469 31.851562 43.386719 C 31.886719 43.402344 31.921875 43.417969 31.960938 43.433594 C 31.996094 43.449219 32.035156 43.464844 32.074219 43.480469 C 32.152344 43.515625 32.234375 43.550781 32.320312 43.585938 C 32.40625 43.621094 32.5 43.660156 32.59375 43.699219 C 32.6875 43.734375 32.785156 43.773438 32.886719 43.8125 C 33.296875 43.964844 33.757812 44.117188 34.238281 44.242188 C 34.683594 44.359375 35.1875 44.464844 35.710938 44.546875 C 36.230469 44.625 36.769531 44.671875 37.269531 44.683594 C 37.773438 44.699219 38.242188 44.675781 38.625 44.628906 C 39.007812 44.585938 39.304688 44.515625 39.476562 44.441406 C 39.492188 44.4375 39.515625 44.429688 39.550781 44.417969 C 39.582031 44.410156 39.625 44.402344 39.671875 44.390625 C 39.714844 44.378906 39.769531 44.367188 39.828125 44.355469 C 39.855469 44.351562 39.886719 44.34375 39.914062 44.335938 C 39.945312 44.332031 39.976562 44.324219 40.011719 44.316406 C 40.140625 44.289062 40.285156 44.261719 40.429688 44.226562 C 40.503906 44.210938 40.578125 44.195312 40.648438 44.179688 C 40.722656 44.164062 40.792969 44.148438 40.863281 44.132812 C 41.246094 44.050781 41.574219 43.964844 41.792969 43.890625 C 41.902344 43.851562 41.988281 43.824219 42.035156 43.792969 C 42.085938 43.765625 42.101562 43.746094 42.074219 43.730469 C 42.042969 43.710938 42.089844 43.675781 42.183594 43.632812 C 42.277344 43.59375 42.421875 43.535156 42.59375 43.476562 C 42.9375 43.351562 43.386719 43.1875 43.765625 43.03125 C 45.464844 42.351562 47.042969 41.328125 48.371094 40.046875 C 49.703125 38.769531 50.785156 37.238281 51.546875 35.570312 C 51.601562 35.449219 51.664062 35.316406 51.71875 35.179688 C 51.746094 35.113281 51.777344 35.042969 51.804688 34.976562 C 51.832031 34.90625 51.859375 34.835938 51.886719 34.769531 C 51.996094 34.496094 52.089844 34.238281 52.164062 34.042969 C 52.203125 33.949219 52.234375 33.867188 52.261719 33.8125 C 52.289062 33.753906 52.308594 33.722656 52.324219 33.722656 C 52.339844 33.722656 52.347656 33.75 52.34375 33.820312 C 52.34375 33.886719 52.335938 33.992188 52.3125 34.140625 C 52.289062 34.269531 52.351562 34.171875 52.441406 33.984375 C 52.480469 33.890625 52.53125 33.777344 52.578125 33.65625 C 52.625 33.535156 52.671875 33.410156 52.710938 33.296875 C 52.855469 32.886719 52.992188 32.394531 53.097656 31.90625 C 53.207031 31.414062 53.289062 30.929688 53.351562 30.53125 C 53.386719 30.328125 53.414062 30.15625 53.441406 30.054688 C 53.464844 29.949219 53.492188 29.914062 53.511719 29.96875 C 53.523438 30 53.53125 30.054688 53.542969 30.132812 C 53.550781 30.214844 53.5625 30.324219 53.5625 30.460938 C 53.5625 30.53125 53.566406 30.609375 53.566406 30.695312 C 53.566406 30.78125 53.5625 30.875 53.5625 30.976562 C 53.558594 31.027344 53.558594 31.082031 53.554688 31.136719 C 53.550781 31.195312 53.546875 31.25 53.542969 31.3125 C 53.539062 31.371094 53.535156 31.433594 53.53125 31.5 C 53.527344 31.5625 53.519531 31.632812 53.515625 31.699219 C 53.449219 32.335938 53.464844 32.507812 53.46875 32.769531 C 53.464844 32.835938 53.464844 32.90625 53.457031 32.992188 C 53.453125 33.035156 53.449219 33.082031 53.445312 33.132812 C 53.4375 33.179688 53.429688 33.238281 53.417969 33.296875 C 53.410156 33.359375 53.398438 33.425781 53.382812 33.5 C 53.367188 33.570312 53.351562 33.652344 53.332031 33.738281 C 53.320312 33.78125 53.308594 33.828125 53.296875 33.875 C 53.285156 33.921875 53.273438 33.972656 53.257812 34.023438 C 53.230469 34.125 53.199219 34.238281 53.160156 34.359375 C 53.191406 34.371094 53.179688 34.550781 53.257812 34.363281 C 53.285156 34.292969 53.3125 34.21875 53.34375 34.144531 C 53.371094 34.066406 53.402344 33.988281 53.433594 33.90625 C 53.460938 33.824219 53.488281 33.738281 53.519531 33.648438 C 53.535156 33.605469 53.550781 33.5625 53.5625 33.515625 C 53.578125 33.46875 53.59375 33.421875 53.609375 33.375 C 53.726562 32.992188 53.847656 32.550781 53.960938 32.027344 " fill-opacity="1" fill-rule="nonzero"/></g><g clip-path="url(#2b3ffc031c)"><path fill="#ff8f1f" d="M 32.300781 16.039062 C 32.375 16.003906 32.449219 15.972656 32.523438 15.9375 C 32.597656 15.90625 32.675781 15.871094 32.75 15.839844 C 32.902344 15.777344 33.054688 15.71875 33.214844 15.664062 C 33.292969 15.636719 33.375 15.609375 33.457031 15.585938 C 33.5 15.574219 33.542969 15.558594 33.582031 15.546875 C 33.625 15.535156 33.667969 15.523438 33.707031 15.511719 C 33.792969 15.492188 33.875 15.46875 33.960938 15.445312 C 34.042969 15.425781 34.128906 15.40625 34.210938 15.386719 C 34.128906 15.414062 34.050781 15.4375 33.96875 15.464844 C 33.886719 15.492188 33.804688 15.523438 33.722656 15.550781 C 33.679688 15.566406 33.636719 15.582031 33.597656 15.597656 C 33.554688 15.613281 33.511719 15.628906 33.472656 15.644531 C 33.386719 15.675781 33.300781 15.707031 33.21875 15.742188 C 33.121094 15.769531 33.03125 15.796875 32.949219 15.820312 C 32.863281 15.847656 32.785156 15.875 32.710938 15.898438 C 32.5625 15.945312 32.433594 15.992188 32.300781 16.039062 Z M 44.757812 15.214844 C 44.3125 15.011719 43.867188 14.8125 43.410156 14.636719 C 43.496094 14.652344 43.574219 14.648438 43.675781 14.6875 C 43.753906 14.714844 43.828125 14.742188 43.90625 14.773438 C 43.945312 14.789062 43.984375 14.800781 44.023438 14.816406 C 44.0625 14.832031 44.101562 14.847656 44.144531 14.867188 C 44.222656 14.898438 44.304688 14.929688 44.390625 14.964844 C 44.472656 15 44.558594 15.039062 44.648438 15.078125 C 45.003906 15.238281 45.410156 15.429688 45.910156 15.707031 C 45.871094 15.6875 45.832031 15.667969 45.796875 15.652344 C 45.761719 15.636719 45.726562 15.621094 45.691406 15.605469 C 45.625 15.578125 45.5625 15.550781 45.503906 15.523438 C 45.386719 15.472656 45.285156 15.433594 45.195312 15.398438 C 45.148438 15.378906 45.109375 15.363281 45.070312 15.347656 C 45.03125 15.328125 44.992188 15.316406 44.957031 15.300781 C 44.886719 15.273438 44.820312 15.242188 44.757812 15.214844 Z M 32.515625 15.859375 C 32.183594 15.984375 31.957031 16.039062 31.6875 16.136719 C 31.722656 16.117188 31.757812 16.097656 31.796875 16.078125 C 31.832031 16.0625 31.871094 16.042969 31.90625 16.023438 C 31.980469 15.988281 32.054688 15.949219 32.128906 15.914062 C 32.203125 15.878906 32.277344 15.847656 32.351562 15.8125 C 32.390625 15.796875 32.425781 15.78125 32.464844 15.765625 C 32.5 15.75 32.539062 15.738281 32.574219 15.722656 C 32.667969 15.6875 32.757812 15.65625 32.859375 15.621094 C 32.957031 15.589844 33.066406 15.554688 33.195312 15.515625 C 33.449219 15.445312 33.773438 15.351562 34.253906 15.242188 C 33.75 15.386719 33.398438 15.523438 33.128906 15.621094 C 32.859375 15.726562 32.675781 15.800781 32.515625 15.859375 Z M 26.769531 20.085938 C 27.773438 19.003906 28.941406 18.046875 30.242188 17.261719 C 30.570312 17.066406 30.902344 16.878906 31.242188 16.707031 C 31.585938 16.535156 31.933594 16.375 32.289062 16.226562 C 33.003906 15.929688 33.742188 15.679688 34.503906 15.492188 C 34.8125 15.410156 35.128906 15.351562 35.449219 15.296875 L 35.6875 15.257812 L 35.929688 15.226562 C 36.007812 15.214844 36.085938 15.203125 36.167969 15.191406 C 36.246094 15.183594 36.328125 15.175781 36.40625 15.164062 C 36.804688 15.121094 37.011719 15.121094 37.121094 15.128906 C 37.230469 15.140625 37.246094 15.160156 37.265625 15.183594 C 37.285156 15.203125 37.304688 15.222656 37.421875 15.234375 C 37.484375 15.238281 37.566406 15.242188 37.6875 15.242188 C 37.75 15.242188 37.820312 15.242188 37.898438 15.242188 C 37.980469 15.242188 38.070312 15.242188 38.175781 15.242188 C 37.636719 15.265625 37.136719 15.324219 36.570312 15.386719 C 35.480469 15.515625 34.402344 15.761719 33.363281 16.128906 C 32.328125 16.5 31.328125 16.980469 30.40625 17.574219 L 30.449219 17.59375 L 30.652344 17.46875 L 30.855469 17.347656 C 30.996094 17.273438 31.128906 17.191406 31.273438 17.121094 C 31.550781 16.96875 31.835938 16.835938 32.125 16.703125 C 32.703125 16.445312 33.300781 16.21875 33.917969 16.035156 C 34.535156 15.851562 35.167969 15.710938 35.8125 15.609375 C 36.136719 15.5625 36.464844 15.515625 36.796875 15.492188 C 36.960938 15.472656 37.125 15.46875 37.292969 15.457031 C 37.375 15.453125 37.460938 15.449219 37.542969 15.445312 L 37.671875 15.441406 C 37.710938 15.4375 37.753906 15.4375 37.796875 15.4375 C 36.574219 15.546875 35.308594 15.777344 34.023438 16.183594 C 32.738281 16.59375 31.4375 17.183594 30.183594 18 C 29.3125 18.570312 28.503906 19.246094 27.777344 20 L 27.707031 20.070312 L 27.640625 20.140625 L 27.507812 20.285156 C 27.421875 20.382812 27.335938 20.480469 27.246094 20.578125 C 27.164062 20.679688 27.078125 20.777344 26.996094 20.878906 L 26.8125 21.109375 L 26.753906 21.1875 C 26.433594 21.605469 26.136719 22.035156 25.863281 22.480469 L 25.921875 22.507812 C 26.667969 21.3125 27.589844 20.234375 28.648438 19.308594 L 28.636719 19.367188 C 27.628906 20.257812 26.746094 21.292969 26.019531 22.449219 C 25.289062 23.605469 24.71875 24.882812 24.34375 26.265625 C 24.628906 25.300781 25.011719 24.382812 25.472656 23.519531 C 25.9375 22.660156 26.480469 21.851562 27.097656 21.097656 C 27.714844 20.347656 28.402344 19.648438 29.160156 19.015625 C 29.917969 18.382812 30.742188 17.8125 31.640625 17.3125 C 31.917969 17.160156 32.210938 17.011719 32.511719 16.871094 C 32.8125 16.734375 33.125 16.605469 33.445312 16.488281 C 34.082031 16.25 34.753906 16.058594 35.441406 15.917969 C 35.785156 15.851562 36.132812 15.789062 36.480469 15.746094 L 36.613281 15.730469 L 36.742188 15.714844 C 36.832031 15.707031 36.917969 15.695312 37.003906 15.6875 C 37.09375 15.683594 37.179688 15.675781 37.269531 15.667969 C 37.355469 15.660156 37.441406 15.65625 37.53125 15.652344 C 37.707031 15.640625 37.878906 15.636719 38.054688 15.628906 C 38.140625 15.628906 38.230469 15.628906 38.316406 15.628906 L 38.445312 15.625 L 38.574219 15.628906 C 38.921875 15.632812 39.265625 15.652344 39.601562 15.675781 C 39.691406 15.683594 39.78125 15.691406 39.871094 15.699219 C 39.957031 15.707031 40.046875 15.71875 40.132812 15.726562 C 40.175781 15.730469 40.21875 15.734375 40.257812 15.738281 C 40.300781 15.746094 40.34375 15.75 40.386719 15.753906 C 40.46875 15.765625 40.550781 15.777344 40.632812 15.785156 C 40.792969 15.8125 40.949219 15.832031 41.101562 15.859375 C 41.175781 15.871094 41.25 15.882812 41.324219 15.894531 C 41.394531 15.910156 41.46875 15.921875 41.535156 15.933594 C 42.097656 16.039062 42.570312 16.152344 42.941406 16.238281 C 42.984375 16.25 43.03125 16.257812 43.074219 16.269531 C 43.117188 16.277344 43.160156 16.289062 43.199219 16.296875 C 43.277344 16.316406 43.351562 16.332031 43.417969 16.34375 C 43.554688 16.375 43.660156 16.390625 43.738281 16.394531 C 43.898438 16.40625 43.945312 16.371094 43.859375 16.273438 C 43.800781 16.207031 43.90625 16.171875 43.683594 16.019531 C 43.652344 16 43.621094 15.980469 43.582031 15.957031 C 43.542969 15.933594 43.496094 15.910156 43.441406 15.886719 C 43.390625 15.859375 43.332031 15.832031 43.261719 15.800781 C 43.195312 15.769531 43.117188 15.738281 43.03125 15.703125 C 42.683594 15.570312 42.1875 15.402344 41.46875 15.242188 C 41.34375 15.21875 41.207031 15.1875 41.066406 15.152344 C 40.996094 15.136719 40.925781 15.121094 40.851562 15.101562 C 40.8125 15.09375 40.777344 15.085938 40.738281 15.078125 C 40.703125 15.066406 40.664062 15.058594 40.625 15.050781 C 40.550781 15.035156 40.472656 15.019531 40.398438 15 C 40.320312 14.984375 40.242188 14.96875 40.164062 14.953125 C 40.011719 14.921875 39.855469 14.898438 39.707031 14.875 C 40.570312 14.949219 41.445312 15.113281 42.246094 15.335938 C 42.644531 15.449219 43.023438 15.578125 43.371094 15.710938 C 43.457031 15.746094 43.542969 15.78125 43.628906 15.8125 C 43.710938 15.847656 43.792969 15.882812 43.871094 15.917969 C 43.949219 15.953125 44.027344 15.988281 44.101562 16.023438 C 44.175781 16.058594 44.246094 16.09375 44.316406 16.128906 C 44.738281 16.339844 45.125 16.550781 45.488281 16.761719 C 45.851562 16.972656 46.191406 17.179688 46.515625 17.390625 C 46.839844 17.605469 47.148438 17.820312 47.453125 18.042969 C 47.753906 18.269531 48.050781 18.507812 48.34375 18.765625 C 48.410156 18.824219 48.476562 18.882812 48.542969 18.941406 C 48.609375 19 48.675781 19.058594 48.738281 19.117188 C 48.804688 19.171875 48.867188 19.230469 48.929688 19.289062 C 48.988281 19.347656 49.054688 19.40625 49.113281 19.464844 C 49.359375 19.699219 49.59375 19.941406 49.820312 20.210938 C 50.175781 20.636719 50.441406 20.988281 50.652344 21.269531 C 50.859375 21.546875 51.011719 21.757812 51.125 21.898438 C 51.183594 21.972656 51.230469 22.027344 51.269531 22.070312 C 51.308594 22.113281 51.339844 22.140625 51.367188 22.152344 C 51.417969 22.183594 51.441406 22.160156 51.449219 22.105469 C 51.453125 22.078125 51.503906 22.125 51.578125 22.214844 C 51.613281 22.257812 51.65625 22.3125 51.699219 22.375 C 51.738281 22.4375 51.785156 22.503906 51.824219 22.578125 C 52.121094 23.09375 52.316406 23.496094 52.476562 23.839844 C 52.515625 23.925781 52.550781 24.007812 52.589844 24.085938 C 52.605469 24.128906 52.625 24.167969 52.640625 24.203125 C 52.65625 24.242188 52.671875 24.28125 52.6875 24.320312 C 52.722656 24.394531 52.753906 24.46875 52.78125 24.539062 C 52.8125 24.613281 52.84375 24.683594 52.871094 24.757812 C 52.988281 25.046875 53.105469 25.347656 53.238281 25.730469 C 53.371094 26.117188 53.523438 26.585938 53.675781 27.222656 C 53.527344 26.421875 53.332031 25.703125 53.105469 25.03125 C 52.878906 24.359375 52.621094 23.742188 52.332031 23.132812 C 52.285156 23.035156 52.226562 22.914062 52.167969 22.785156 C 52.109375 22.65625 52.046875 22.523438 51.992188 22.402344 C 51.882812 22.164062 51.796875 21.976562 51.820312 21.992188 C 51.859375 22.019531 51.917969 22.089844 52 22.191406 C 52.039062 22.242188 52.085938 22.300781 52.128906 22.367188 C 52.179688 22.4375 52.230469 22.511719 52.285156 22.59375 C 52.5 22.925781 52.757812 23.375 53.003906 23.894531 C 53.253906 24.414062 53.492188 25.007812 53.679688 25.609375 C 53.867188 26.210938 54.011719 26.824219 54.101562 27.371094 C 54.167969 27.785156 54.203125 28.234375 54.238281 28.621094 C 54.28125 29.085938 54.320312 29.503906 54.339844 29.941406 C 54.347656 29.804688 54.355469 29.675781 54.367188 29.542969 C 54.371094 29.40625 54.375 29.265625 54.371094 29.101562 L 54.363281 28.828125 L 54.359375 28.6875 L 54.347656 28.550781 L 54.332031 28.277344 L 54.296875 27.867188 L 54.28125 27.730469 C 54.269531 27.640625 54.261719 27.546875 54.25 27.457031 C 54.238281 27.367188 54.226562 27.273438 54.210938 27.183594 L 54.195312 27.046875 L 54.171875 26.910156 C 54.15625 26.816406 54.140625 26.726562 54.125 26.632812 C 54.109375 26.542969 54.089844 26.453125 54.070312 26.359375 C 54.0625 26.316406 54.054688 26.269531 54.046875 26.222656 L 54.015625 26.085938 C 53.996094 25.996094 53.976562 25.902344 53.953125 25.8125 C 53.863281 25.449219 53.765625 25.082031 53.648438 24.71875 C 53.132812 23.109375 52.355469 21.574219 51.363281 20.1875 C 50.367188 18.800781 49.148438 17.570312 47.765625 16.550781 C 47.199219 16.128906 46.601562 15.75 45.984375 15.40625 C 45.675781 15.234375 45.359375 15.070312 45.039062 14.921875 C 44.878906 14.84375 44.71875 14.773438 44.554688 14.699219 C 44.476562 14.664062 44.394531 14.632812 44.3125 14.597656 C 44.230469 14.5625 44.148438 14.527344 44.066406 14.496094 C 43.40625 14.238281 42.730469 14.015625 42.042969 13.84375 C 41.957031 13.820312 41.871094 13.800781 41.785156 13.78125 L 41.523438 13.722656 L 41.394531 13.691406 L 41.265625 13.667969 L 41.003906 13.613281 C 40.652344 13.554688 40.304688 13.496094 39.949219 13.457031 C 39.597656 13.410156 39.246094 13.382812 38.890625 13.363281 L 38.625 13.351562 L 38.492188 13.34375 L 38.359375 13.34375 L 38.09375 13.335938 C 38.003906 13.335938 37.917969 13.335938 37.828125 13.335938 C 37.472656 13.339844 37.117188 13.355469 36.761719 13.378906 L 36.496094 13.402344 L 36.363281 13.410156 L 36.234375 13.425781 L 35.96875 13.453125 L 35.703125 13.488281 C 34.292969 13.679688 32.90625 14.058594 31.589844 14.601562 C 31.671875 14.578125 31.753906 14.550781 31.839844 14.527344 C 31.882812 14.511719 31.925781 14.5 31.972656 14.484375 C 32.015625 14.472656 32.058594 14.457031 32.105469 14.445312 C 32.195312 14.417969 32.285156 14.386719 32.378906 14.359375 C 32.472656 14.332031 32.570312 14.304688 32.664062 14.277344 C 33.050781 14.164062 33.453125 14.054688 33.847656 13.96875 C 33.949219 13.945312 34.042969 13.929688 34.132812 13.914062 C 34.222656 13.898438 34.3125 13.878906 34.398438 13.867188 C 34.566406 13.84375 34.730469 13.816406 34.910156 13.796875 C 34.738281 13.835938 34.546875 13.894531 34.367188 13.941406 C 34.1875 13.992188 34.027344 14.039062 33.925781 14.0625 C 33.417969 14.175781 32.996094 14.3125 32.613281 14.457031 C 32.417969 14.527344 32.238281 14.609375 32.058594 14.683594 C 31.882812 14.765625 31.707031 14.84375 31.535156 14.929688 C 31.1875 15.101562 30.839844 15.289062 30.453125 15.503906 C 30.070312 15.722656 29.644531 15.972656 29.148438 16.28125 C 29.0625 16.335938 29 16.378906 28.949219 16.410156 C 28.902344 16.445312 28.871094 16.46875 28.855469 16.480469 C 28.820312 16.511719 28.84375 16.507812 28.898438 16.480469 C 28.953125 16.457031 29.039062 16.417969 29.132812 16.371094 C 29.230469 16.328125 29.332031 16.28125 29.417969 16.246094 C 29.59375 16.175781 29.703125 16.148438 29.550781 16.269531 C 29.511719 16.300781 29.457031 16.34375 29.386719 16.394531 C 29.3125 16.445312 29.222656 16.511719 29.109375 16.589844 C 28.886719 16.75 28.578125 16.964844 28.175781 17.277344 C 28.214844 17.261719 28.238281 17.269531 28.296875 17.226562 C 28.75 16.890625 29.042969 16.714844 29.226562 16.621094 C 29.410156 16.523438 29.488281 16.507812 29.519531 16.515625 C 29.589844 16.539062 29.492188 16.660156 29.78125 16.507812 C 30.230469 16.269531 30.496094 16.160156 30.609375 16.117188 C 30.722656 16.074219 30.691406 16.101562 30.570312 16.175781 C 30.507812 16.210938 30.425781 16.261719 30.328125 16.316406 C 30.230469 16.371094 30.117188 16.441406 29.996094 16.515625 C 29.875 16.585938 29.746094 16.667969 29.617188 16.75 C 29.554688 16.792969 29.488281 16.832031 29.425781 16.875 C 29.359375 16.917969 29.296875 16.960938 29.234375 17.003906 C 27.679688 18.074219 26.320312 19.429688 25.242188 20.976562 C 25.179688 21.210938 24.734375 21.898438 24.335938 22.679688 C 24.136719 23.066406 23.941406 23.476562 23.792969 23.851562 C 23.753906 23.945312 23.722656 24.039062 23.691406 24.125 C 23.675781 24.167969 23.660156 24.210938 23.644531 24.253906 C 23.628906 24.296875 23.617188 24.339844 23.601562 24.378906 C 23.578125 24.457031 23.554688 24.535156 23.53125 24.601562 C 23.511719 24.671875 23.496094 24.738281 23.484375 24.796875 C 23.59375 24.507812 23.71875 24.222656 23.84375 23.941406 C 23.976562 23.660156 24.109375 23.378906 24.257812 23.109375 C 24.402344 22.835938 24.558594 22.570312 24.714844 22.3125 C 24.753906 22.246094 24.796875 22.183594 24.835938 22.121094 C 24.875 22.058594 24.914062 21.992188 24.957031 21.933594 C 25.042969 21.808594 25.121094 21.683594 25.207031 21.566406 C 25.261719 21.496094 25.308594 21.429688 25.351562 21.371094 C 25.394531 21.316406 25.433594 21.265625 25.464844 21.226562 C 25.53125 21.144531 25.574219 21.097656 25.585938 21.097656 C 25.597656 21.097656 25.574219 21.144531 25.511719 21.246094 C 25.449219 21.347656 25.351562 21.507812 25.207031 21.738281 C 24.875 22.285156 24.5625 22.867188 24.34375 23.347656 C 25.011719 22.132812 25.839844 21.03125 26.789062 20.066406 L 26.769531 20.085938 " fill-opacity="1" fill-rule="nonzero"/></g><path fill="#ff8f1f" d="M 26.984375 21.558594 C 27.195312 21.269531 27.433594 20.972656 27.695312 20.671875 C 27.957031 20.371094 28.246094 20.066406 28.558594 19.765625 C 29.183594 19.167969 29.910156 18.582031 30.726562 18.0625 C 31.132812 17.800781 31.5625 17.554688 32.011719 17.332031 C 32.457031 17.109375 32.925781 16.90625 33.40625 16.730469 C 33.886719 16.550781 34.378906 16.398438 34.882812 16.269531 C 35.386719 16.144531 35.898438 16.046875 36.410156 15.976562 C 37.097656 15.878906 37.769531 15.84375 38.425781 15.851562 C 39.085938 15.863281 39.734375 15.914062 40.375 16.019531 C 41.019531 16.125 41.65625 16.28125 42.292969 16.492188 C 42.613281 16.597656 42.929688 16.714844 43.25 16.847656 C 43.566406 16.984375 43.882812 17.136719 44.203125 17.300781 C 44.667969 17.546875 44.984375 17.742188 45.191406 17.878906 C 45.246094 17.914062 45.289062 17.941406 45.328125 17.96875 C 45.367188 17.996094 45.398438 18.019531 45.425781 18.039062 C 45.476562 18.078125 45.503906 18.101562 45.511719 18.109375 C 45.523438 18.128906 45.449219 18.097656 45.3125 18.03125 C 45.238281 17.996094 45.152344 17.957031 45.050781 17.910156 C 45 17.882812 44.945312 17.859375 44.886719 17.835938 C 44.828125 17.808594 44.765625 17.78125 44.699219 17.753906 C 44.359375 17.609375 44.117188 17.53125 43.976562 17.496094 C 43.839844 17.46875 43.800781 17.484375 43.867188 17.546875 C 43.933594 17.605469 44.101562 17.71875 44.367188 17.886719 C 44.628906 18.054688 44.988281 18.285156 45.421875 18.601562 C 45.863281 18.925781 46.050781 19.113281 46.078125 19.175781 C 46.105469 19.238281 45.972656 19.179688 45.742188 19.058594 C 44.800781 18.566406 43.726562 18.128906 42.597656 17.851562 C 42.570312 17.84375 42.539062 17.835938 42.5 17.824219 C 42.464844 17.816406 42.425781 17.804688 42.378906 17.792969 C 42.292969 17.765625 42.195312 17.734375 42.089844 17.703125 C 41.984375 17.675781 41.875 17.640625 41.765625 17.613281 C 41.710938 17.597656 41.65625 17.582031 41.601562 17.566406 C 41.550781 17.550781 41.5 17.539062 41.449219 17.523438 C 41.289062 17.480469 41.132812 17.445312 40.972656 17.40625 C 40.816406 17.375 40.65625 17.339844 40.5 17.3125 C 40.34375 17.285156 40.1875 17.265625 40.03125 17.242188 C 39.953125 17.230469 39.875 17.222656 39.796875 17.210938 C 39.722656 17.203125 39.644531 17.195312 39.566406 17.1875 C 38.945312 17.128906 38.335938 17.121094 37.726562 17.144531 C 36.46875 17.199219 35.1875 17.417969 33.933594 17.839844 C 32.683594 18.257812 31.464844 18.878906 30.351562 19.699219 C 31.363281 18.886719 32.507812 18.222656 33.726562 17.75 C 34.949219 17.277344 36.242188 16.988281 37.546875 16.898438 C 38.492188 16.828125 39.425781 16.859375 40.347656 16.980469 C 41.265625 17.105469 42.171875 17.328125 43.054688 17.644531 L 43.078125 17.585938 C 42.363281 17.285156 41.617188 17.042969 40.867188 16.867188 C 40.832031 16.859375 40.796875 16.851562 40.757812 16.839844 C 40.71875 16.832031 40.679688 16.824219 40.644531 16.816406 C 40.566406 16.800781 40.488281 16.785156 40.40625 16.769531 C 40.246094 16.738281 40.085938 16.710938 39.929688 16.6875 C 39.621094 16.636719 39.339844 16.601562 39.167969 16.570312 C 38.816406 16.507812 38.453125 16.464844 38.078125 16.449219 C 37.699219 16.433594 37.3125 16.4375 36.921875 16.46875 C 36.132812 16.527344 35.316406 16.6875 34.507812 16.9375 C 34.101562 17.066406 33.664062 17.222656 33.269531 17.394531 C 32.871094 17.5625 32.511719 17.746094 32.25 17.902344 C 31.816406 18.164062 31.480469 18.382812 31.125 18.601562 C 30.769531 18.824219 30.390625 19.050781 29.890625 19.375 C 29.816406 19.421875 29.738281 19.476562 29.652344 19.542969 C 29.5625 19.605469 29.472656 19.675781 29.371094 19.757812 C 29.347656 19.777344 29.320312 19.796875 29.296875 19.816406 C 29.269531 19.839844 29.242188 19.859375 29.21875 19.882812 C 29.164062 19.925781 29.113281 19.972656 29.054688 20.019531 C 29.003906 20.066406 28.945312 20.117188 28.890625 20.167969 C 28.859375 20.195312 28.832031 20.21875 28.800781 20.246094 C 28.773438 20.273438 28.746094 20.300781 28.714844 20.328125 C 28.65625 20.386719 28.597656 20.441406 28.535156 20.5 C 28.476562 20.5625 28.414062 20.621094 28.355469 20.683594 C 28.292969 20.746094 28.230469 20.8125 28.167969 20.878906 C 28.105469 20.941406 28.042969 21.011719 27.980469 21.082031 C 27.726562 21.363281 27.472656 21.667969 27.21875 21.996094 C 27.71875 21.296875 28.269531 20.667969 28.851562 20.105469 C 29.4375 19.542969 30.054688 19.050781 30.695312 18.621094 C 31.335938 18.191406 31.996094 17.824219 32.671875 17.519531 C 33.007812 17.363281 33.351562 17.226562 33.695312 17.101562 C 34.039062 16.976562 34.386719 16.867188 34.734375 16.769531 C 34.804688 16.75 34.875 16.730469 34.945312 16.714844 C 35.011719 16.691406 35.082031 16.675781 35.152344 16.660156 C 35.21875 16.640625 35.285156 16.621094 35.355469 16.605469 C 35.421875 16.589844 35.492188 16.574219 35.558594 16.554688 L 35.660156 16.53125 C 35.695312 16.523438 35.730469 16.515625 35.761719 16.507812 C 35.832031 16.492188 35.902344 16.476562 35.972656 16.457031 C 36.042969 16.445312 36.113281 16.429688 36.183594 16.414062 C 36.253906 16.398438 36.328125 16.382812 36.402344 16.367188 C 36.476562 16.355469 36.550781 16.339844 36.628906 16.324219 C 36.703125 16.308594 36.78125 16.296875 36.863281 16.285156 C 36.941406 16.269531 37.023438 16.257812 37.109375 16.246094 C 37.195312 16.234375 37.28125 16.222656 37.367188 16.210938 C 37.722656 16.164062 38.117188 16.132812 38.566406 16.117188 C 37.199219 16.0625 35.882812 16.207031 34.671875 16.507812 C 34.597656 16.523438 34.519531 16.546875 34.445312 16.566406 C 34.371094 16.585938 34.296875 16.605469 34.222656 16.625 C 34.074219 16.671875 33.925781 16.710938 33.78125 16.761719 C 33.492188 16.851562 33.210938 16.953125 32.933594 17.0625 C 32.382812 17.28125 31.859375 17.523438 31.371094 17.792969 C 30.878906 18.0625 30.417969 18.351562 29.992188 18.65625 C 29.566406 18.960938 29.167969 19.277344 28.804688 19.597656 C 28.078125 20.246094 27.476562 20.914062 26.984375 21.558594 " fill-opacity="1" fill-rule="nonzero"/><path fill="#ff8f1f" d="M 26.769531 20.085938 C 26.5625 20.34375 26.3125 20.648438 26.0625 20.980469 C 25.8125 21.3125 25.570312 21.664062 25.363281 22.003906 C 25.257812 22.167969 25.164062 22.335938 25.082031 22.488281 C 25.039062 22.5625 25.003906 22.636719 24.96875 22.707031 C 24.949219 22.742188 24.933594 22.777344 24.917969 22.8125 C 24.902344 22.84375 24.886719 22.878906 24.875 22.910156 C 24.765625 23.160156 24.714844 23.347656 24.746094 23.417969 C 24.746094 23.421875 24.734375 23.453125 24.707031 23.507812 C 24.683594 23.5625 24.652344 23.636719 24.613281 23.726562 C 24.589844 23.773438 24.566406 23.820312 24.546875 23.875 C 24.523438 23.925781 24.5 23.980469 24.472656 24.039062 C 24.449219 24.09375 24.421875 24.152344 24.398438 24.210938 C 24.371094 24.273438 24.347656 24.332031 24.320312 24.394531 C 24.113281 24.875 23.921875 25.371094 23.851562 25.367188 C 23.851562 25.367188 23.859375 25.386719 23.859375 25.386719 C 23.75 25.515625 23.742188 25.398438 23.832031 25.0625 C 23.925781 24.726562 24.121094 24.179688 24.464844 23.488281 C 25.074219 22.261719 25.855469 21.097656 26.785156 20.070312 C 26.789062 20.066406 26.769531 20.085938 26.769531 20.085938 " fill-opacity="1" fill-rule="nonzero"/><path fill="#ff8f1f" d="M 23.507812 30.238281 C 23.507812 30.136719 23.507812 30.039062 23.507812 29.941406 C 23.511719 29.847656 23.511719 29.753906 23.515625 29.664062 C 23.515625 29.574219 23.523438 29.484375 23.527344 29.398438 C 23.53125 29.3125 23.53125 29.230469 23.539062 29.148438 C 23.550781 28.984375 23.558594 28.832031 23.574219 28.683594 C 23.582031 28.609375 23.589844 28.539062 23.597656 28.46875 C 23.605469 28.402344 23.613281 28.332031 23.621094 28.265625 C 23.6875 27.738281 23.769531 27.320312 23.859375 26.945312 C 23.886719 26.839844 23.914062 26.746094 23.941406 26.667969 C 23.96875 26.589844 23.996094 26.519531 24.023438 26.457031 C 24.078125 26.332031 24.132812 26.230469 24.191406 26.09375 C 24.160156 26.222656 24.125 26.359375 24.09375 26.5 C 24.082031 26.574219 24.0625 26.644531 24.050781 26.714844 C 24.035156 26.785156 24.023438 26.855469 24.007812 26.925781 C 23.957031 27.203125 23.914062 27.453125 23.878906 27.617188 C 23.871094 27.667969 23.859375 27.71875 23.847656 27.765625 C 23.839844 27.816406 23.828125 27.863281 23.820312 27.914062 C 23.800781 28.007812 23.78125 28.105469 23.761719 28.199219 C 23.746094 28.296875 23.726562 28.394531 23.710938 28.492188 C 23.695312 28.589844 23.679688 28.6875 23.660156 28.789062 C 23.601562 29.199219 23.542969 29.652344 23.507812 30.238281 " fill-opacity="1" fill-rule="nonzero"/><path fill="#ff8f1f" d="M 23.449219 33.527344 C 23.542969 33.941406 23.648438 34.351562 23.773438 34.757812 C 23.902344 35.164062 24.042969 35.566406 24.203125 35.960938 C 24.523438 36.75 24.914062 37.511719 25.363281 38.238281 L 25.246094 38.121094 L 25.132812 38.003906 C 24.917969 37.636719 24.714844 37.265625 24.53125 36.882812 C 24.351562 36.5 24.183594 36.109375 24.03125 35.714844 C 23.730469 34.921875 23.5 34.109375 23.335938 33.28125 C 23.371094 33.363281 23.410156 33.445312 23.449219 33.527344 " fill-opacity="1" fill-rule="nonzero"/><path fill="#ff8f1f" d="M 23.859375 25.386719 C 23.859375 25.386719 23.851562 25.367188 23.851562 25.367188 C 23.671875 25.972656 23.535156 26.558594 23.425781 27.097656 C 23.3125 27.636719 23.226562 28.125 23.140625 28.527344 C 23.136719 28.535156 23.136719 28.511719 23.136719 28.476562 C 23.136719 28.457031 23.136719 28.433594 23.136719 28.410156 C 23.136719 28.382812 23.140625 28.355469 23.140625 28.328125 C 23.144531 28.21875 23.148438 28.09375 23.15625 28.058594 C 23.308594 27.128906 23.542969 26.246094 23.859375 25.386719 " fill-opacity="1" fill-rule="nonzero"/><path fill="#ff8f1f" d="M 25.742188 18.957031 C 26.132812 18.535156 26.546875 18.136719 26.980469 17.757812 C 27.417969 17.378906 27.871094 17.027344 28.339844 16.695312 L 28.273438 16.789062 C 27.304688 17.492188 26.410156 18.304688 25.613281 19.203125 C 25.65625 19.121094 25.699219 19.039062 25.742188 18.957031 " fill-opacity="1" fill-rule="nonzero"/><path fill="#ff8f1f" d="M 33.476562 16.003906 C 32.984375 16.164062 32.503906 16.351562 32.03125 16.5625 C 31.5625 16.777344 31.101562 17.015625 30.65625 17.277344 L 30.644531 17.25 C 31.09375 16.988281 31.550781 16.75 32.023438 16.539062 C 32.496094 16.324219 32.980469 16.136719 33.46875 15.976562 L 33.476562 16.003906 " fill-opacity="1" fill-rule="nonzero"/><path fill="#ff8f1f" d="M 27.195312 39.761719 C 27.121094 39.671875 27.042969 39.582031 26.96875 39.488281 C 26.890625 39.394531 26.8125 39.300781 26.742188 39.207031 C 26.667969 39.113281 26.597656 39.023438 26.535156 38.933594 C 26.472656 38.847656 26.414062 38.765625 26.367188 38.691406 C 26.257812 38.523438 26.175781 38.382812 26.105469 38.25 C 26.074219 38.1875 26.039062 38.121094 26.007812 38.058594 C 25.976562 37.992188 25.941406 37.929688 25.910156 37.859375 C 26.15625 38.246094 26.464844 38.65625 26.695312 38.96875 C 27.003906 39.390625 27.261719 39.730469 27.5625 40.089844 C 27.5 40.035156 27.441406 39.980469 27.378906 39.925781 C 27.320312 39.871094 27.257812 39.816406 27.195312 39.761719 " fill-opacity="1" fill-rule="nonzero"/><path fill="#ff8f1f" d="M 30.613281 18.410156 C 30.707031 18.347656 30.804688 18.289062 30.902344 18.226562 C 31 18.164062 31.097656 18.109375 31.195312 18.050781 C 31.277344 18 31.363281 17.960938 31.449219 17.914062 C 31.253906 18.023438 31.058594 18.140625 30.867188 18.257812 C 30.785156 18.3125 30.695312 18.355469 30.613281 18.410156 " fill-opacity="1" fill-rule="nonzero"/><path fill="#ff8f1f" d="M 26.257812 23.917969 C 26.210938 24.019531 26.167969 24.113281 26.125 24.207031 C 26.082031 24.296875 26.042969 24.382812 26 24.472656 C 25.96875 24.546875 25.929688 24.625 25.894531 24.703125 C 25.929688 24.617188 25.960938 24.527344 26.003906 24.445312 C 26.042969 24.363281 26.082031 24.277344 26.121094 24.191406 C 26.164062 24.105469 26.210938 24.015625 26.257812 23.917969 " fill-opacity="1" fill-rule="nonzero"/><path fill="#ff8f1f" d="M 52.589844 28.289062 C 52.574219 28.199219 52.558594 28.113281 52.542969 28.027344 C 52.523438 27.941406 52.507812 27.855469 52.496094 27.769531 C 52.460938 27.558594 52.441406 27.34375 52.40625 27.132812 C 52.425781 27.21875 52.453125 27.304688 52.472656 27.390625 C 52.492188 27.476562 52.507812 27.5625 52.523438 27.652344 C 52.542969 27.757812 52.550781 27.863281 52.5625 27.96875 C 52.574219 28.074219 52.582031 28.179688 52.589844 28.289062 " fill-opacity="1" fill-rule="nonzero"/><g clip-path="url(#266eacfaa4)"><g mask="url(#7689a5c31e)"><g transform="matrix(1, 0, 0, 1, 21, 15)"><g clip-path="url(#88aa12e6a0)"><g clip-path="url(#a95deb13a5)"><path fill="#ff8f1f" d="M 30.378906 15.59375 C 30.460938 14.96875 30.5 13.957031 30.3125 12.757812 C 30.207031 12.160156 30.074219 11.507812 29.863281 10.84375 C 29.648438 10.175781 29.382812 9.5 29.050781 8.847656 C 28.714844 8.195312 28.316406 7.542969 27.890625 6.941406 C 27.464844 6.34375 26.988281 5.785156 26.492188 5.292969 C 26.015625 4.785156 25.496094 4.359375 25.03125 3.976562 C 24.789062 3.789062 24.5625 3.601562 24.324219 3.457031 C 24.21875 3.375 24.097656 3.296875 23.992188 3.230469 C 23.886719 3.148438 23.777344 3.097656 23.671875 3.03125 C 23.367188 2.828125 23.046875 2.671875 22.765625 2.511719 C 22.621094 2.429688 22.472656 2.363281 22.339844 2.296875 C 22.207031 2.230469 22.074219 2.164062 21.941406 2.109375 C 21.675781 2.003906 21.4375 1.886719 21.195312 1.804688 C 20.96875 1.710938 20.757812 1.632812 20.542969 1.566406 C 20.371094 1.511719 20.34375 1.5 20.4375 1.527344 C 20.53125 1.550781 20.746094 1.605469 21.039062 1.726562 C 21.636719 1.9375 22.609375 2.351562 23.660156 3.03125 C 24.617188 3.617188 25.683594 4.414062 26.746094 5.53125 C 26.132812 4.785156 25.441406 4.109375 24.765625 3.546875 C 24.085938 2.988281 23.394531 2.523438 22.808594 2.179688 C 21.902344 1.738281 20.945312 1.378906 19.945312 1.125 C 18.839844 0.847656 17.710938 0.6875 16.589844 0.675781 C 15.460938 0.648438 14.34375 0.742188 13.238281 0.980469 C 11.082031 1.40625 8.980469 2.351562 7.167969 3.722656 C 6.503906 4.214844 5.503906 5.078125 4.679688 6.105469 C 4.574219 6.238281 4.480469 6.355469 4.375 6.488281 C 4.265625 6.625 4.175781 6.757812 4.082031 6.875 C 3.882812 7.128906 3.722656 7.394531 3.546875 7.636719 C 3.386719 7.886719 3.242188 8.128906 3.109375 8.339844 C 2.988281 8.566406 2.871094 8.765625 2.777344 8.9375 C 3.523438 7.421875 4.535156 6.050781 5.71875 4.867188 C 6.914062 3.695312 8.3125 2.710938 9.816406 1.976562 C 12.851562 0.527344 16.351562 0.128906 19.625 0.859375 C 19.453125 0.808594 19.28125 0.78125 19.105469 0.726562 C 18.242188 0.554688 17.363281 0.460938 16.484375 0.449219 C 15.605469 0.433594 14.714844 0.5 13.835938 0.632812 C 12.078125 0.898438 10.375 1.5 8.820312 2.363281 C 8.285156 2.65625 7.78125 3.003906 7.261719 3.347656 C 7.765625 2.988281 8.273438 2.65625 8.820312 2.363281 C 9.511719 1.964844 10.203125 1.617188 10.949219 1.324219 C 11.695312 1.035156 12.464844 0.78125 13.316406 0.605469 C 14.367188 0.394531 15.59375 0.339844 16.644531 0.367188 C 17.511719 0.394531 18.296875 0.539062 19.09375 0.726562 L 19.480469 0.808594 L 19.867188 0.898438 C 20 0.925781 20.117188 0.964844 20.25 0.992188 L 20.625 1.113281 C 20.769531 1.152344 20.929688 1.179688 21.089844 1.246094 C 21.089844 1.246094 21.078125 1.234375 21.078125 1.234375 C 20.796875 1.058594 19.785156 0.632812 18.308594 0.367188 C 16.84375 0.0898438 14.929688 0.0351562 13.011719 0.394531 C 12.054688 0.566406 11.109375 0.847656 10.230469 1.191406 C 9.351562 1.539062 8.539062 1.964844 7.847656 2.390625 C 6.449219 3.257812 5.503906 4.175781 5.105469 4.585938 C 4.480469 5.253906 3.972656 5.984375 3.535156 6.757812 C 3.097656 7.542969 2.695312 8.367188 2.296875 9.285156 C 2.03125 9.898438 1.777344 10.402344 1.671875 10.910156 C 1.683594 10.960938 1.644531 11.226562 1.605469 11.480469 C 1.257812 12.757812 0.964844 14.078125 1.046875 15.101562 C 1.058594 15.273438 1.007812 15.539062 0.964844 15.832031 C 0.925781 16.125 0.859375 16.445312 0.820312 16.765625 C 0.792969 16.925781 0.78125 17.070312 0.753906 17.21875 C 0.738281 17.363281 0.726562 17.496094 0.726562 17.605469 C 0.714844 17.828125 0.714844 17.988281 0.753906 18.03125 C 1.019531 18.28125 1.046875 18.308594 1.046875 18.496094 C 1.046875 18.589844 1.03125 18.722656 1.058594 18.933594 C 1.074219 19.042969 1.085938 19.175781 1.113281 19.320312 C 1.140625 19.480469 1.179688 19.652344 1.234375 19.867188 C 1.257812 19.972656 1.351562 20.171875 1.472656 20.398438 C 1.59375 20.625 1.710938 20.863281 1.777344 21.0625 C 1.976562 21.742188 2.175781 22.15625 2.417969 22.566406 C 2.535156 22.769531 2.65625 22.992188 2.828125 23.21875 C 2.910156 23.339844 2.988281 23.472656 3.082031 23.605469 C 3.175781 23.753906 3.28125 23.886719 3.386719 24.058594 C 4.09375 25.015625 4.546875 25.574219 4.984375 26.09375 C 5.210938 26.347656 5.4375 26.601562 5.730469 26.855469 C 5.796875 26.921875 5.878906 26.988281 5.957031 27.054688 C 6.039062 27.121094 6.117188 27.171875 6.210938 27.238281 C 6.382812 27.371094 6.582031 27.507812 6.808594 27.640625 C 6.914062 27.707031 7.632812 28.226562 8.378906 28.609375 C 9.125 29.011719 9.871094 29.316406 9.871094 29.316406 C 11 29.875 12 30.140625 12.917969 30.339844 C 13.851562 30.539062 14.714844 30.6875 15.6875 30.886719 C 16.832031 30.808594 18.148438 30.738281 19.480469 30.515625 C 20.796875 30.273438 22.140625 29.875 23.207031 29.304688 C 24.285156 28.730469 25.015625 28.277344 25.722656 27.839844 C 26.425781 27.386719 27.09375 26.933594 27.90625 26.203125 C 28.132812 25.976562 28.304688 25.777344 28.464844 25.589844 C 28.625 25.402344 28.757812 25.242188 28.890625 25.125 C 29.023438 25.003906 29.183594 24.722656 29.355469 24.429688 C 29.433594 24.285156 29.527344 24.125 29.609375 23.964844 C 29.648438 23.886719 29.703125 23.820312 29.742188 23.738281 C 29.78125 23.671875 29.820312 23.59375 29.863281 23.527344 L 29.886719 23.726562 C 29.996094 23.554688 30.234375 23.195312 30.328125 23.019531 C 30.433594 22.835938 30.445312 22.902344 30.445312 22.96875 C 30.472656 23.101562 30.488281 23.234375 30.714844 22.925781 C 31.179688 22.15625 31.578125 21.332031 31.898438 20.4375 C 32.125 19.535156 32.242188 18.613281 32.285156 17.722656 C 32.242188 17.671875 32.191406 17.605469 32.164062 17.46875 C 32.175781 17.203125 32.152344 16.9375 32.152344 16.671875 C 32.042969 16.511719 31.910156 16.550781 31.84375 16.445312 C 31.683594 16.433594 31.523438 16.167969 31.378906 15.925781 C 31.230469 15.6875 31.074219 15.5 30.925781 15.621094 C 30.871094 15.671875 30.847656 16.046875 30.792969 16.472656 C 30.753906 16.683594 30.726562 16.925781 30.671875 17.136719 C 30.621094 17.351562 30.566406 17.550781 30.5 17.695312 C 30.433594 17.828125 30.367188 17.484375 30.273438 17.335938 C 30.246094 17.535156 30.222656 17.683594 30.195312 17.789062 C 30.167969 17.894531 30.128906 17.964844 30.101562 17.988281 C 30.046875 18.054688 29.996094 17.976562 29.980469 17.804688 C 29.941406 17.976562 29.902344 18.164062 29.902344 18.164062 C 29.875 18.109375 29.78125 17.964844 29.78125 17.964844 C 29.542969 18.90625 29.15625 19.867188 28.714844 20.757812 C 28.265625 21.664062 27.746094 22.5 27.265625 23.300781 C 27.210938 23.378906 27.144531 23.488281 27.09375 23.59375 C 27.027344 23.699219 26.960938 23.820312 26.878906 23.925781 C 26.746094 24.164062 26.574219 24.390625 26.453125 24.578125 C 26.402344 24.671875 26.269531 24.789062 26.132812 24.910156 C 26 25.03125 25.882812 25.136719 25.800781 25.191406 C 25.640625 25.484375 25.761719 25.550781 25.75 25.722656 C 25.46875 25.949219 25.097656 26.214844 24.699219 26.480469 C 24.605469 26.546875 24.496094 26.613281 24.390625 26.679688 L 24.085938 26.878906 C 23.871094 27.011719 23.671875 27.132812 23.472656 27.253906 C 23.273438 27.371094 23.085938 27.480469 22.914062 27.585938 C 22.742188 27.679688 22.59375 27.773438 22.460938 27.851562 C 22.339844 27.933594 22.25 28.011719 22.183594 28.066406 C 22.128906 28.132812 22.101562 28.183594 22.140625 28.226562 C 22.007812 28.277344 21.890625 28.332031 21.78125 28.382812 C 21.675781 28.4375 21.570312 28.476562 21.488281 28.515625 C 21.304688 28.609375 21.15625 28.691406 20.996094 28.769531 C 20.835938 28.851562 20.679688 28.929688 20.476562 29.011719 C 20.277344 29.089844 20.050781 29.167969 19.757812 29.25 C 18.988281 29.460938 18.082031 29.621094 17.109375 29.6875 C 16.140625 29.753906 15.113281 29.714844 14.117188 29.554688 C 13.023438 29.410156 11.988281 29.101562 10.988281 28.703125 C 10.800781 28.636719 10.628906 28.542969 10.441406 28.464844 C 10.347656 28.425781 10.269531 28.382812 10.175781 28.34375 C 10.097656 28.304688 10.003906 28.265625 9.921875 28.210938 C 8.125 27.304688 6.648438 26.070312 5.503906 24.671875 C 4.359375 23.273438 3.523438 21.714844 2.988281 20.066406 C 2.457031 18.429688 2.21875 16.699219 2.285156 14.929688 C 2.351562 13.160156 2.722656 11.335938 3.496094 9.511719 C 4.332031 7.703125 5.558594 6.023438 7.074219 4.667969 C 7.835938 3.988281 8.671875 3.402344 9.550781 2.910156 C 10.429688 2.417969 11.375 2.03125 12.332031 1.753906 C 14.25 1.179688 16.246094 1.058594 18.121094 1.300781 C 20 1.539062 21.742188 2.164062 23.234375 3.015625 C 24.722656 3.882812 25.960938 4.960938 26.921875 6.089844 C 27.398438 6.664062 27.8125 7.25 28.171875 7.820312 C 28.53125 8.394531 28.808594 8.964844 29.0625 9.511719 C 29.542969 10.617188 29.808594 11.628906 29.96875 12.480469 C 30.128906 13.332031 30.179688 14.011719 30.207031 14.476562 C 30.273438 14.847656 30.328125 15.222656 30.378906 15.59375 Z M 30.378906 15.59375 " fill-opacity="1" fill-rule="nonzero"/></g></g></g></g></g><g clip-path="url(#631dd8a292)"><path fill="#2b8e06" d="M 47.757812 26.089844 L 46.175781 27.09375 C 46.578125 28.140625 46.804688 29.269531 46.804688 30.457031 C 46.804688 35.675781 42.574219 39.90625 37.355469 39.90625 C 32.140625 39.90625 27.910156 35.675781 27.910156 30.457031 C 27.910156 25.242188 32.140625 21.011719 37.355469 21.011719 C 39.988281 21.011719 42.363281 22.089844 44.074219 23.824219 L 45.691406 22.796875 L 45.753906 21.992188 C 43.597656 19.851562 40.632812 18.523438 37.355469 18.523438 C 30.777344 18.523438 25.421875 23.875 25.421875 30.457031 C 25.421875 37.039062 30.777344 42.394531 37.355469 42.394531 C 43.9375 42.394531 49.292969 37.039062 49.292969 30.457031 C 49.292969 29.03125 49.035156 27.667969 48.574219 26.398438 L 47.757812 26.089844 " fill-opacity="1" fill-rule="nonzero"/></g><path fill="#2b8e06" d="M 42.386719 28.332031 C 42.664062 28.984375 42.828125 29.699219 42.828125 30.457031 C 42.828125 33.480469 40.378906 35.929688 37.355469 35.929688 C 34.335938 35.929688 31.886719 33.480469 31.886719 30.457031 C 31.886719 27.4375 34.335938 24.988281 37.355469 24.988281 C 38.933594 24.988281 40.34375 25.660156 41.339844 26.726562 L 43.113281 25.59375 C 41.726562 23.957031 39.664062 22.914062 37.355469 22.914062 C 33.195312 22.914062 29.8125 26.296875 29.8125 30.457031 C 29.8125 34.617188 33.195312 38.003906 37.355469 38.003906 C 41.515625 38.003906 44.902344 34.617188 44.902344 30.457031 C 44.902344 29.292969 44.628906 28.195312 44.15625 27.210938 L 42.386719 28.332031 " fill-opacity="1" fill-rule="nonzero"/><path fill="#2b8e06" d="M 38.878906 30.542969 C 38.832031 31.347656 38.171875 31.988281 37.355469 31.988281 C 36.511719 31.988281 35.824219 31.304688 35.824219 30.457031 C 35.824219 29.613281 36.511719 28.925781 37.355469 28.925781 C 37.507812 28.925781 37.648438 28.957031 37.78125 28.996094 L 39.730469 27.753906 C 39.097656 27.195312 38.265625 26.851562 37.355469 26.851562 C 35.371094 26.851562 33.75 28.46875 33.75 30.457031 C 33.75 32.445312 35.371094 34.0625 37.355469 34.0625 C 39.34375 34.0625 40.960938 32.445312 40.960938 30.457031 C 40.960938 30.070312 40.894531 29.695312 40.78125 29.34375 L 38.878906 30.542969 " fill-opacity="1" fill-rule="nonzero"/><g clip-path="url(#60cd4128fd)"><path fill="#2b8e06" d="M 48.625 25.972656 L 51.070312 24.417969 L 48.957031 23.691406 L 49.789062 23.164062 C 50.050781 23 50.128906 22.648438 49.960938 22.386719 C 49.796875 22.121094 49.445312 22.042969 49.183594 22.210938 L 48.375 22.726562 L 48.609375 20.546875 L 46.164062 22.101562 L 45.988281 24.25 L 45.511719 24.554688 L 45.644531 23.316406 L 44.28125 24.183594 L 44.183594 25.402344 L 37.226562 29.847656 C 37.226562 29.847656 36.828125 30.082031 37.101562 30.550781 C 37.359375 30.984375 37.796875 30.738281 37.796875 30.738281 L 44.839844 26.289062 L 45.988281 26.722656 L 47.355469 25.855469 L 46.171875 25.449219 L 46.566406 25.199219 L 48.625 25.972656 " fill-opacity="1" fill-rule="nonzero"/></g></svg>