<svg xmlns="http://www.w3.org/2000/svg" xmlns:xlink="http://www.w3.org/1999/xlink" width="450" zoomAndPan="magnify" viewBox="0 0 337.5 337.500003" height="450" preserveAspectRatio="xMidYMid meet" version="1.0"><defs><clipPath id="8035890e7b"><path d="M 7.507812 92.109375 L 322.445312 92.109375 L 322.445312 327.65625 L 7.507812 327.65625 Z M 7.507812 92.109375 " clip-rule="nonzero"/></clipPath><clipPath id="4452011bbd"><path d="M 34.417969 5.644531 L 324.902344 5.644531 L 324.902344 161.96875 L 34.417969 161.96875 Z M 34.417969 5.644531 " clip-rule="nonzero"/></clipPath><clipPath id="98f626a6e5"><path d="M 47.207031 43.152344 L 295 43.152344 L 295 290.285156 L 47.207031 290.285156 Z M 47.207031 43.152344 " clip-rule="nonzero"/></clipPath><clipPath id="3f35104775"><path d="M 167 64 L 312.3125 64 L 312.3125 171 L 167 171 Z M 167 64 " clip-rule="nonzero"/></clipPath></defs><path fill="#ffffff" d="M 0 0 L 337 0 L 337 337 L 0 337 Z M 0 0 " fill-opacity="1" fill-rule="nonzero"/><path fill="#ffffff" d="M 0 0 L 337 0 L 337 337 L 0 337 Z M 0 0 " fill-opacity="1" fill-rule="nonzero"/><g clip-path="url(#8035890e7b)"><path fill="#ff8f1f" d="M 321.023438 181.421875 C 320.230469 187.582031 319.234375 192.570312 318.207031 196.945312 C 317.941406 198.039062 317.703125 199.101562 317.425781 200.125 C 317.15625 201.148438 316.886719 202.148438 316.625 203.128906 C 316.339844 204.101562 316.0625 205.054688 315.789062 206 C 315.523438 206.949219 315.203125 207.871094 314.917969 208.800781 C 311.980469 218.019531 308.230469 226.902344 303.628906 235.378906 C 303.980469 234.921875 304.320312 234.472656 304.664062 234.027344 C 304.996094 233.578125 305.328125 233.128906 305.65625 232.683594 C 306.316406 231.792969 306.980469 230.90625 307.617188 229.96875 C 308.261719 229.035156 308.941406 228.082031 309.589844 227.046875 C 310.246094 226.007812 310.953125 224.925781 311.632812 223.71875 C 312.980469 221.480469 315.144531 216.714844 316.8125 212.414062 C 318.386719 208.355469 319.53125 205.019531 320.316406 202.667969 C 321.117188 200.328125 321.570312 198.972656 321.734375 198.863281 C 321.816406 198.808594 321.824219 199.0625 321.746094 199.648438 C 321.675781 200.242188 321.492188 201.160156 321.207031 202.441406 C 320.652344 205.003906 319.632812 209.003906 317.773438 214.535156 C 317.34375 215.84375 317.136719 216.722656 317.035156 217.5 C 316.925781 218.273438 316.90625 218.949219 316.714844 219.800781 C 317.1875 218.734375 317.585938 217.707031 317.988281 216.746094 C 318.390625 215.785156 318.738281 214.867188 319.066406 214.015625 C 319.390625 213.160156 319.707031 212.371094 319.972656 211.636719 C 320.238281 210.902344 320.476562 210.230469 320.695312 209.625 C 321.144531 208.417969 321.464844 207.464844 321.707031 206.800781 C 321.949219 206.140625 322.101562 205.765625 322.164062 205.703125 C 322.285156 205.574219 322.074219 206.691406 321.402344 209.203125 C 321.050781 210.449219 320.621094 212.058594 319.984375 214.007812 C 319.675781 214.984375 319.34375 216.058594 318.933594 217.207031 C 318.535156 218.359375 318.113281 219.613281 317.601562 220.9375 C 313.5625 231.761719 308.804688 241.484375 303.457031 250.40625 C 298.09375 259.324219 292.140625 267.453125 285.46875 274.972656 C 281.421875 279.542969 277.171875 283.800781 272.765625 287.808594 C 268.351562 291.808594 263.769531 295.558594 258.980469 299.039062 C 254.191406 302.519531 249.207031 305.746094 244.007812 308.71875 C 238.800781 311.6875 233.386719 314.417969 227.707031 316.835938 C 226.566406 317.308594 225.25 317.855469 223.792969 318.382812 C 222.335938 318.902344 220.761719 319.480469 219.109375 319.988281 C 218.28125 320.25 217.445312 320.515625 216.597656 320.78125 C 215.746094 321.027344 214.886719 321.273438 214.03125 321.519531 C 213.601562 321.644531 213.175781 321.765625 212.75 321.886719 C 212.320312 322 211.890625 322.113281 211.464844 322.222656 C 210.613281 322.441406 209.773438 322.664062 208.949219 322.878906 C 198.6875 325.433594 188.144531 326.972656 177.539062 327.472656 C 166.941406 327.972656 156.242188 327.453125 145.625 325.847656 C 135.015625 324.246094 124.503906 321.554688 114.328125 317.792969 C 104.15625 314.035156 94.320312 309.199219 85.046875 303.375 C 63.324219 289.761719 44.878906 271.074219 31.554688 249.246094 C 24.871094 238.34375 19.503906 226.644531 15.527344 214.511719 C 11.59375 202.359375 9.035156 189.773438 8.023438 177.101562 C 7.628906 172.273438 7.460938 167.550781 7.515625 162.96875 C 7.570312 158.386719 7.800781 153.933594 8.222656 149.632812 C 8.65625 145.335938 9.234375 141.1875 9.960938 137.214844 C 10.144531 136.226562 10.347656 135.246094 10.542969 134.273438 C 10.640625 133.789062 10.742188 133.304688 10.839844 132.824219 C 10.949219 132.347656 11.058594 131.871094 11.164062 131.398438 C 11.386719 130.449219 11.59375 129.511719 11.828125 128.585938 C 12.066406 127.664062 12.304688 126.753906 12.539062 125.847656 C 12.769531 124.945312 13.039062 124.0625 13.292969 123.183594 C 13.554688 122.308594 13.792969 121.4375 14.074219 120.589844 C 14.625 118.886719 15.152344 117.222656 15.742188 115.621094 C 16.035156 114.820312 16.308594 114.027344 16.609375 113.25 C 16.914062 112.476562 17.210938 111.714844 17.511719 110.957031 C 17.660156 110.582031 17.808594 110.207031 17.957031 109.835938 C 18.113281 109.46875 18.269531 109.105469 18.425781 108.742188 C 18.738281 108.015625 19.046875 107.300781 19.351562 106.597656 C 21.847656 100.988281 24.503906 96.214844 27.039062 92.269531 C 22.480469 102.066406 18.839844 112.492188 16.34375 123.148438 C 13.84375 133.800781 12.492188 144.675781 12.28125 155.289062 C 12.039062 168.328125 13.488281 180.050781 16.167969 191.78125 C 17.523438 197.644531 19.175781 203.527344 21.277344 209.558594 C 23.375 215.589844 25.835938 221.804688 28.917969 228.289062 C 30.773438 232.210938 33.195312 235.542969 35.289062 238.46875 C 35.601562 238.910156 35.890625 239.320312 36.179688 239.691406 C 36.46875 240.066406 36.742188 240.410156 37.007812 240.734375 C 37.539062 241.382812 38.027344 241.953125 38.507812 242.503906 C 39 243.042969 39.484375 243.574219 39.992188 244.132812 C 40.5 244.699219 41.023438 245.308594 41.628906 246.003906 C 42.238281 246.699219 42.886719 247.5 43.652344 248.449219 C 44.039062 248.917969 44.449219 249.429688 44.886719 249.984375 C 45.328125 250.539062 45.789062 251.144531 46.3125 251.785156 C 46.828125 252.429688 47.378906 253.128906 47.964844 253.886719 C 48.566406 254.632812 49.210938 255.4375 49.90625 256.304688 C 51.296875 258.035156 52.910156 259.996094 54.8125 262.226562 C 56.316406 263.105469 58.292969 264.566406 61.015625 266.738281 C 63.757812 268.890625 67.242188 271.765625 71.894531 275.308594 C 72.425781 275.714844 72.246094 275.320312 71.667969 274.558594 C 71.375 274.179688 70.984375 273.707031 70.53125 273.195312 C 70.082031 272.675781 69.574219 272.113281 69.039062 271.566406 C 65.671875 268.125 62.28125 264.367188 59.214844 260.53125 C 56.144531 256.699219 53.402344 252.789062 51.222656 249.15625 C 54.378906 253.628906 57.828125 257.96875 61.402344 262.039062 C 64.277344 265.3125 67.359375 268.601562 70.523438 271.660156 C 73.691406 274.714844 76.945312 277.53125 80.085938 279.898438 C 84.269531 283.015625 86.886719 284.292969 90.210938 286.074219 C 90.628906 286.300781 91.054688 286.535156 91.496094 286.773438 C 91.945312 287.015625 92.410156 287.261719 92.894531 287.523438 C 93.863281 288.058594 94.921875 288.644531 96.113281 289.308594 C 96.710938 289.644531 97.335938 290 98.003906 290.378906 C 98.675781 290.75 99.386719 291.148438 100.136719 291.578125 C 100.886719 292.015625 101.695312 292.445312 102.546875 292.925781 C 102.972656 293.164062 103.410156 293.40625 103.863281 293.664062 C 104.316406 293.914062 104.789062 294.160156 105.269531 294.429688 C 106.125 294.664062 107.035156 294.964844 107.976562 295.222656 C 108.914062 295.484375 109.863281 295.75 110.757812 296 C 112.5625 296.445312 114.140625 296.796875 115 296.789062 C 115.472656 296.78125 115.054688 296.386719 114.109375 295.730469 C 113.160156 295.082031 111.660156 294.226562 109.976562 293.28125 C 108.761719 292.636719 107.417969 291.871094 105.96875 291.082031 C 105.246094 290.691406 104.519531 290.253906 103.765625 289.832031 C 103.394531 289.617188 103.015625 289.402344 102.632812 289.183594 C 102.257812 288.960938 101.878906 288.734375 101.496094 288.507812 C 98.445312 286.714844 95.402344 284.722656 92.851562 282.886719 C 88.6875 279.867188 85.683594 277.203125 82.375 274.183594 C 83.0625 274.742188 83.679688 275.179688 84.199219 275.558594 C 84.726562 275.9375 85.167969 276.242188 85.539062 276.484375 C 86.285156 276.96875 86.757812 277.195312 87.054688 277.292969 C 87.644531 277.484375 87.550781 277.109375 87.671875 276.90625 C 87.796875 276.699219 88.128906 276.675781 89.574219 277.542969 C 91.046875 278.371094 93.574219 280.171875 98.398438 283.183594 C 99.070312 283.59375 100.050781 284.144531 101.144531 284.722656 C 102.25 285.273438 103.453125 285.882812 104.582031 286.386719 C 105.707031 286.882812 106.730469 287.332031 107.453125 287.609375 C 108.175781 287.878906 108.589844 288.003906 108.480469 287.902344 C 107.070312 286.5625 106.976562 286.035156 107.832031 286.195312 C 108.265625 286.265625 108.949219 286.488281 109.835938 286.84375 C 110.285156 287.023438 110.777344 287.242188 111.328125 287.46875 C 111.878906 287.699219 112.480469 287.953125 113.125 288.234375 C 113.445312 288.378906 113.777344 288.523438 114.121094 288.675781 C 114.46875 288.824219 114.828125 288.972656 115.195312 289.128906 C 115.929688 289.441406 116.707031 289.773438 117.519531 290.121094 C 118.339844 290.453125 119.195312 290.800781 120.085938 291.160156 C 120.976562 291.519531 121.910156 291.863281 122.863281 292.230469 C 126.691406 293.667969 131.027344 295.101562 135.554688 296.273438 C 139.738281 297.363281 144.492188 298.386719 149.398438 299.125 C 154.300781 299.871094 159.351562 300.324219 164.078125 300.441406 C 168.804688 300.558594 173.203125 300.339844 176.804688 299.910156 C 180.410156 299.496094 183.21875 298.839844 184.808594 298.167969 C 184.964844 298.101562 185.203125 298.03125 185.511719 297.949219 C 185.820312 297.863281 186.199219 297.769531 186.636719 297.664062 C 187.074219 297.566406 187.566406 297.457031 188.109375 297.347656 C 188.378906 297.292969 188.65625 297.238281 188.949219 297.175781 C 189.238281 297.113281 189.535156 297.046875 189.84375 296.980469 C 191.070312 296.71875 192.425781 296.457031 193.792969 296.144531 C 194.480469 296 195.167969 295.855469 195.851562 295.707031 C 196.535156 295.554688 197.207031 295.40625 197.863281 295.257812 C 201.449219 294.460938 204.542969 293.667969 206.609375 292.972656 C 207.640625 292.621094 208.429688 292.335938 208.890625 292.070312 C 209.351562 291.8125 209.496094 291.605469 209.257812 291.460938 C 208.96875 291.285156 209.375 290.964844 210.261719 290.5625 C 211.152344 290.171875 212.503906 289.636719 214.125 289.066406 C 217.355469 287.894531 221.59375 286.355469 225.152344 284.910156 C 241.144531 278.484375 255.960938 268.859375 268.460938 256.828125 C 280.980469 244.808594 291.164062 230.398438 298.324219 214.734375 C 298.832031 213.578125 299.414062 212.347656 299.9375 211.0625 C 300.207031 210.425781 300.476562 209.78125 300.75 209.136719 C 301.007812 208.488281 301.265625 207.839844 301.515625 207.199219 C 302.542969 204.640625 303.433594 202.191406 304.140625 200.375 C 304.511719 199.46875 304.792969 198.710938 305.050781 198.1875 C 305.300781 197.660156 305.503906 197.359375 305.640625 197.351562 C 305.777344 197.339844 305.847656 197.621094 305.835938 198.257812 C 305.824219 198.890625 305.75 199.890625 305.511719 201.296875 C 305.316406 202.492188 305.90625 201.574219 306.726562 199.820312 C 307.117188 198.9375 307.59375 197.851562 308.039062 196.714844 C 308.46875 195.578125 308.917969 194.402344 309.285156 193.347656 C 310.636719 189.484375 311.90625 184.863281 312.921875 180.261719 C 313.945312 175.660156 314.699219 171.082031 315.300781 167.359375 C 315.636719 165.414062 315.875 163.816406 316.128906 162.84375 C 316.375 161.871094 316.609375 161.523438 316.8125 162.070312 C 316.910156 162.347656 317.003906 162.847656 317.089844 163.605469 C 317.164062 164.363281 317.261719 165.382812 317.28125 166.691406 C 317.296875 167.351562 317.308594 168.078125 317.3125 168.886719 C 317.324219 169.691406 317.285156 170.578125 317.261719 171.542969 C 317.246094 172.023438 317.230469 172.527344 317.214844 173.050781 C 317.183594 173.574219 317.148438 174.121094 317.113281 174.683594 C 317.078125 175.25 317.035156 175.835938 316.996094 176.445312 C 316.957031 177.054688 316.886719 177.683594 316.828125 178.335938 C 316.230469 184.3125 316.367188 185.925781 316.382812 188.394531 C 316.371094 189.007812 316.347656 189.675781 316.285156 190.476562 C 316.253906 190.878906 316.222656 191.316406 316.160156 191.789062 C 316.097656 192.265625 316.023438 192.785156 315.929688 193.359375 C 315.839844 193.929688 315.730469 194.558594 315.601562 195.246094 C 315.457031 195.929688 315.292969 196.679688 315.101562 197.5 C 315.007812 197.910156 314.902344 198.339844 314.796875 198.785156 C 314.679688 199.230469 314.554688 199.695312 314.421875 200.179688 C 314.152344 201.148438 313.878906 202.207031 313.511719 203.335938 C 313.785156 203.453125 313.671875 205.144531 314.398438 203.394531 C 314.679688 202.730469 314.945312 202.035156 315.214844 201.3125 C 315.484375 200.59375 315.765625 199.847656 316.050781 199.082031 C 316.316406 198.304688 316.589844 197.5 316.875 196.671875 C 317.011719 196.253906 317.160156 195.832031 317.296875 195.398438 C 317.433594 194.964844 317.566406 194.523438 317.707031 194.074219 C 318.828125 190.476562 319.960938 186.324219 321.023438 181.421875 " fill-opacity="1" fill-rule="nonzero"/></g><g clip-path="url(#4452011bbd)"><path fill="#ff8f1f" d="M 117.328125 31.050781 C 118.03125 30.730469 118.734375 30.417969 119.4375 30.097656 C 120.144531 29.792969 120.855469 29.496094 121.566406 29.195312 C 122.984375 28.578125 124.441406 28.054688 125.917969 27.519531 C 126.679688 27.265625 127.453125 27.027344 128.226562 26.785156 C 128.613281 26.667969 129.003906 26.550781 129.394531 26.433594 C 129.785156 26.328125 130.179688 26.222656 130.574219 26.117188 C 131.359375 25.90625 132.148438 25.691406 132.9375 25.492188 C 133.730469 25.300781 134.523438 25.109375 135.316406 24.917969 C 134.546875 25.167969 133.777344 25.417969 133.003906 25.671875 C 132.234375 25.929688 131.46875 26.207031 130.691406 26.480469 C 130.300781 26.617188 129.910156 26.753906 129.519531 26.894531 C 129.132812 27.042969 128.738281 27.191406 128.347656 27.339844 C 127.558594 27.640625 126.757812 27.9375 125.949219 28.261719 C 125.042969 28.535156 124.203125 28.78125 123.417969 29.015625 C 122.625 29.25 121.902344 29.503906 121.207031 29.726562 C 119.8125 30.164062 118.570312 30.613281 117.328125 31.050781 Z M 234.46875 23.304688 C 230.296875 21.40625 226.105469 19.515625 221.804688 17.890625 C 222.632812 18.027344 223.363281 18 224.3125 18.339844 C 225.03125 18.609375 225.753906 18.878906 226.484375 19.152344 C 226.851562 19.292969 227.21875 19.429688 227.589844 19.570312 C 227.957031 19.71875 228.328125 19.871094 228.703125 20.023438 C 229.453125 20.324219 230.21875 20.636719 231.011719 20.960938 C 231.792969 21.300781 232.601562 21.652344 233.441406 22.023438 C 236.789062 23.519531 240.625 25.335938 245.3125 27.921875 C 244.949219 27.75 244.597656 27.585938 244.253906 27.425781 C 243.910156 27.277344 243.582031 27.128906 243.261719 26.988281 C 242.625 26.710938 242.03125 26.449219 241.484375 26.207031 C 240.382812 25.734375 239.421875 25.367188 238.589844 25.019531 C 238.171875 24.851562 237.78125 24.691406 237.414062 24.539062 C 237.039062 24.390625 236.691406 24.253906 236.355469 24.117188 C 235.683594 23.847656 235.070312 23.582031 234.46875 23.304688 Z M 119.359375 29.359375 C 116.25 30.539062 114.101562 31.050781 111.558594 31.964844 C 111.898438 31.789062 112.242188 31.613281 112.585938 31.433594 C 112.933594 31.261719 113.28125 31.089844 113.628906 30.917969 C 114.324219 30.574219 115.023438 30.230469 115.71875 29.886719 C 116.417969 29.5625 117.125 29.246094 117.820312 28.9375 C 118.171875 28.785156 118.519531 28.636719 118.867188 28.488281 C 119.214844 28.339844 119.566406 28.210938 119.914062 28.082031 C 120.777344 27.757812 121.628906 27.441406 122.570312 27.128906 C 123.515625 26.828125 124.539062 26.503906 125.730469 26.140625 C 128.132812 25.460938 131.199219 24.578125 135.707031 23.582031 C 130.980469 24.941406 127.65625 26.195312 125.113281 27.140625 C 122.578125 28.105469 120.847656 28.832031 119.359375 29.359375 Z M 65.320312 69.132812 C 74.765625 58.9375 85.746094 49.925781 97.980469 42.558594 C 101.046875 40.722656 104.171875 38.96875 107.386719 37.347656 C 110.601562 35.730469 113.882812 34.214844 117.226562 32.808594 C 123.933594 30.03125 130.886719 27.683594 138.054688 25.90625 C 140.964844 25.15625 143.949219 24.59375 146.9375 24.070312 L 149.191406 23.71875 L 150.316406 23.550781 L 151.445312 23.398438 C 152.195312 23.300781 152.949219 23.199219 153.699219 23.097656 C 154.453125 23.011719 155.203125 22.925781 155.953125 22.839844 C 159.6875 22.425781 161.628906 22.417969 162.667969 22.511719 C 163.707031 22.601562 163.851562 22.800781 164.023438 23 C 164.191406 23.191406 164.382812 23.386719 165.507812 23.492188 C 166.066406 23.546875 166.863281 23.570312 168.003906 23.566406 C 168.574219 23.582031 169.230469 23.582031 169.992188 23.582031 C 170.75 23.578125 171.609375 23.558594 172.585938 23.574219 C 167.53125 23.769531 162.828125 24.320312 157.480469 24.925781 C 147.238281 26.132812 137.09375 28.460938 127.335938 31.90625 C 117.585938 35.382812 108.207031 39.910156 99.515625 45.484375 L 99.917969 45.664062 L 100.863281 45.074219 L 103.746094 43.375 C 105.050781 42.660156 106.332031 41.90625 107.65625 41.226562 C 110.277344 39.8125 112.96875 38.535156 115.683594 37.292969 C 121.132812 34.867188 126.753906 32.742188 132.546875 31.035156 C 138.332031 29.296875 144.289062 27.976562 150.371094 27.011719 C 153.417969 26.5625 156.492188 26.152344 159.601562 25.90625 C 161.152344 25.746094 162.71875 25.679688 164.285156 25.570312 C 165.070312 25.53125 165.855469 25.507812 166.644531 25.476562 L 167.828125 25.433594 C 168.222656 25.417969 168.621094 25.417969 169.015625 25.414062 C 157.539062 26.433594 145.613281 28.597656 133.523438 32.4375 C 121.445312 36.273438 109.199219 41.820312 97.4375 49.511719 C 89.234375 54.859375 81.628906 61.203125 74.796875 68.296875 L 74.152344 68.960938 L 73.527344 69.636719 L 72.269531 70.992188 C 71.4375 71.902344 70.636719 72.835938 69.816406 73.753906 C 69.027344 74.699219 68.226562 75.632812 67.449219 76.589844 L 65.714844 78.753906 L 65.15625 79.488281 C 62.152344 83.390625 59.363281 87.453125 56.792969 91.648438 L 57.335938 91.878906 C 64.347656 80.65625 73.03125 70.496094 82.984375 61.816406 L 82.875 62.351562 C 73.40625 70.730469 65.105469 80.449219 58.257812 91.324219 C 51.414062 102.199219 46.023438 114.238281 42.496094 127.222656 C 45.1875 118.144531 48.777344 109.53125 53.125 101.417969 C 57.484375 93.308594 62.609375 85.710938 68.398438 78.636719 C 74.199219 71.566406 80.660156 65.011719 87.789062 59.066406 C 94.917969 53.117188 102.683594 47.730469 111.117188 43.042969 C 113.75 41.585938 116.488281 40.199219 119.316406 38.890625 C 122.15625 37.605469 125.078125 36.367188 128.085938 35.269531 C 134.09375 33.054688 140.40625 31.25 146.871094 29.933594 C 150.101562 29.285156 153.363281 28.714844 156.648438 28.316406 L 157.878906 28.15625 L 159.113281 28.023438 C 159.933594 27.941406 160.753906 27.835938 161.578125 27.769531 C 162.402344 27.699219 163.226562 27.632812 164.046875 27.566406 C 164.871094 27.492188 165.695312 27.464844 166.515625 27.410156 C 168.160156 27.296875 169.804688 27.277344 171.441406 27.210938 C 172.261719 27.203125 173.082031 27.195312 173.898438 27.191406 L 175.121094 27.179688 L 176.34375 27.203125 C 179.597656 27.222656 182.820312 27.40625 186 27.640625 C 186.851562 27.714844 187.691406 27.785156 188.519531 27.855469 C 189.351562 27.941406 190.167969 28.027344 190.972656 28.113281 C 191.378906 28.15625 191.777344 28.199219 192.175781 28.242188 C 192.574219 28.292969 192.96875 28.339844 193.359375 28.394531 C 194.140625 28.492188 194.914062 28.589844 195.675781 28.6875 C 197.1875 28.925781 198.667969 29.109375 200.082031 29.363281 C 200.792969 29.480469 201.492188 29.59375 202.179688 29.710938 C 202.859375 29.835938 203.535156 29.960938 204.191406 30.085938 C 209.464844 31.066406 213.898438 32.113281 217.382812 32.929688 C 217.820312 33.027344 218.242188 33.121094 218.652344 33.214844 C 219.054688 33.308594 219.445312 33.402344 219.820312 33.492188 C 220.574219 33.664062 221.265625 33.808594 221.898438 33.933594 C 223.152344 34.203125 224.164062 34.367188 224.910156 34.417969 C 226.394531 34.527344 226.824219 34.175781 226.023438 33.253906 C 225.480469 32.648438 226.460938 32.324219 224.363281 30.890625 C 224.101562 30.707031 223.789062 30.511719 223.421875 30.292969 C 223.050781 30.085938 222.617188 29.859375 222.121094 29.613281 C 221.621094 29.367188 221.054688 29.097656 220.414062 28.804688 C 219.769531 28.519531 219.042969 28.226562 218.234375 27.902344 C 214.984375 26.632812 210.3125 25.058594 203.539062 23.578125 C 202.367188 23.34375 201.105469 23.039062 199.777344 22.726562 C 199.113281 22.574219 198.433594 22.414062 197.738281 22.257812 C 197.394531 22.175781 197.046875 22.089844 196.695312 22.003906 C 196.34375 21.929688 195.988281 21.851562 195.632812 21.773438 C 194.917969 21.617188 194.195312 21.457031 193.476562 21.296875 C 192.753906 21.140625 192.023438 21.003906 191.296875 20.859375 C 189.84375 20.558594 188.390625 20.328125 186.984375 20.109375 C 195.101562 20.808594 203.347656 22.355469 210.855469 24.449219 C 214.605469 25.5 218.164062 26.710938 221.445312 27.972656 C 222.261719 28.296875 223.0625 28.617188 223.851562 28.929688 C 224.628906 29.261719 225.390625 29.59375 226.136719 29.917969 C 226.882812 30.238281 227.601562 30.574219 228.300781 30.910156 C 229 31.246094 229.683594 31.566406 230.339844 31.898438 C 234.3125 33.898438 237.941406 35.886719 241.351562 37.859375 C 244.761719 39.832031 247.953125 41.789062 251.007812 43.773438 C 254.050781 45.773438 256.964844 47.800781 259.816406 49.917969 C 262.664062 52.039062 265.429688 54.277344 268.183594 56.683594 C 268.828125 57.246094 269.460938 57.800781 270.085938 58.347656 C 270.699219 58.902344 271.308594 59.453125 271.914062 59.996094 C 272.523438 60.53125 273.113281 61.078125 273.695312 61.625 C 274.28125 62.175781 274.875 62.707031 275.445312 63.261719 C 277.738281 65.464844 279.941406 67.742188 282.105469 70.304688 C 285.445312 74.277344 287.9375 77.601562 289.902344 80.234375 C 291.871094 82.863281 293.289062 84.824219 294.363281 86.179688 C 294.910156 86.847656 295.347656 87.382812 295.71875 87.777344 C 296.089844 88.167969 296.386719 88.425781 296.625 88.566406 C 297.105469 88.839844 297.339844 88.636719 297.410156 88.105469 C 297.4375 87.867188 297.9375 88.289062 298.621094 89.117188 C 298.957031 89.535156 299.34375 90.054688 299.746094 90.636719 C 300.140625 91.21875 300.570312 91.859375 300.945312 92.546875 C 303.722656 97.40625 305.570312 101.203125 307.070312 104.417969 C 307.4375 105.230469 307.785156 106 308.117188 106.746094 C 308.285156 107.117188 308.449219 107.484375 308.609375 107.84375 C 308.761719 108.207031 308.914062 108.566406 309.066406 108.917969 C 309.367188 109.625 309.664062 110.3125 309.949219 110.996094 C 310.226562 111.683594 310.507812 112.363281 310.785156 113.046875 C 311.898438 115.785156 312.972656 118.605469 314.230469 122.210938 C 315.476562 125.820312 316.898438 130.226562 318.351562 136.230469 C 316.953125 128.6875 315.121094 121.925781 312.984375 115.628906 C 310.863281 109.320312 308.410156 103.492188 305.699219 97.78125 C 305.265625 96.863281 304.714844 95.722656 304.179688 94.507812 C 303.628906 93.300781 303.035156 92.050781 302.53125 90.910156 C 301.46875 88.660156 300.6875 86.890625 300.890625 87.054688 C 301.261719 87.3125 301.824219 87.957031 302.574219 88.914062 C 302.945312 89.394531 303.375 89.945312 303.816406 90.582031 C 304.257812 91.21875 304.738281 91.929688 305.253906 92.703125 C 307.28125 95.8125 309.714844 100.03125 312.042969 104.929688 C 314.375 109.820312 316.609375 115.386719 318.371094 121.058594 C 320.152344 126.722656 321.496094 132.476562 322.332031 137.640625 C 322.957031 141.515625 323.308594 145.738281 323.644531 149.375 C 324.058594 153.75 324.417969 157.671875 324.585938 161.8125 C 324.660156 160.507812 324.753906 159.304688 324.828125 158.039062 C 324.886719 156.773438 324.914062 155.445312 324.894531 153.882812 L 324.800781 151.308594 L 324.757812 150.019531 L 324.675781 148.734375 L 324.519531 146.15625 L 324.296875 143.582031 L 324.183594 142.292969 L 324.039062 141.007812 C 323.941406 140.148438 323.84375 139.289062 323.75 138.429688 C 323.632812 137.570312 323.511719 136.714844 323.394531 135.851562 L 323.210938 134.5625 L 323 133.277344 C 322.859375 132.417969 322.714844 131.558594 322.570312 130.699219 C 322.40625 129.839844 322.238281 128.984375 322.074219 128.125 C 321.992188 127.695312 321.910156 127.261719 321.816406 126.832031 L 321.535156 125.546875 C 321.34375 124.6875 321.160156 123.828125 320.957031 122.96875 C 320.125 119.535156 319.183594 116.101562 318.085938 112.671875 C 313.238281 97.535156 305.941406 83.097656 296.582031 70.078125 C 287.230469 57.042969 275.773438 45.453125 262.773438 35.871094 C 257.441406 31.914062 251.820312 28.34375 246.015625 25.097656 C 243.097656 23.503906 240.152344 21.953125 237.132812 20.546875 C 235.636719 19.816406 234.109375 19.15625 232.589844 18.476562 C 231.828125 18.136719 231.054688 17.828125 230.285156 17.503906 C 229.515625 17.191406 228.753906 16.855469 227.972656 16.558594 C 221.773438 14.117188 215.425781 12.03125 208.949219 10.414062 C 208.140625 10.210938 207.332031 10.003906 206.523438 9.8125 L 204.082031 9.261719 L 202.859375 8.992188 L 201.632812 8.746094 L 199.175781 8.261719 C 195.890625 7.679688 192.59375 7.140625 189.28125 6.765625 C 185.96875 6.351562 182.640625 6.089844 179.308594 5.882812 L 176.8125 5.773438 L 175.5625 5.71875 L 174.3125 5.695312 L 171.808594 5.648438 C 170.976562 5.640625 170.140625 5.65625 169.308594 5.65625 C 165.972656 5.664062 162.636719 5.824219 159.304688 6.042969 L 156.804688 6.246094 L 155.558594 6.351562 L 154.3125 6.488281 L 151.820312 6.757812 L 149.332031 7.082031 C 136.078125 8.867188 123.042969 12.417969 110.664062 17.535156 C 111.425781 17.3125 112.207031 17.074219 113.015625 16.828125 C 113.414062 16.699219 113.824219 16.566406 114.234375 16.4375 C 114.648438 16.316406 115.070312 16.191406 115.492188 16.0625 C 116.339844 15.800781 117.203125 15.539062 118.082031 15.269531 C 118.960938 15.007812 119.859375 14.746094 120.761719 14.480469 C 124.386719 13.445312 128.179688 12.40625 131.894531 11.605469 C 132.828125 11.386719 133.71875 11.230469 134.570312 11.070312 C 135.425781 10.921875 136.238281 10.757812 137.046875 10.648438 C 138.65625 10.414062 140.203125 10.175781 141.859375 9.984375 C 140.269531 10.339844 138.445312 10.882812 136.765625 11.328125 C 135.09375 11.824219 133.574219 12.25 132.601562 12.476562 C 127.859375 13.546875 123.878906 14.835938 120.261719 16.195312 C 118.449219 16.859375 116.746094 17.601562 115.066406 18.316406 C 113.402344 19.082031 111.761719 19.8125 110.140625 20.636719 C 106.875 22.234375 103.609375 24 99.976562 26.042969 C 96.34375 28.089844 92.347656 30.421875 87.707031 33.335938 C 86.902344 33.851562 86.285156 34.246094 85.828125 34.554688 C 85.378906 34.867188 85.09375 35.085938 84.933594 35.222656 C 84.621094 35.5 84.832031 35.453125 85.339844 35.226562 C 85.855469 34.988281 86.667969 34.613281 87.558594 34.199219 C 88.449219 33.785156 89.40625 33.324219 90.234375 33.003906 C 91.878906 32.347656 92.890625 32.082031 91.46875 33.242188 C 91.113281 33.53125 90.605469 33.910156 89.921875 34.398438 C 89.242188 34.894531 88.386719 35.503906 87.328125 36.242188 C 85.234375 37.746094 82.316406 39.761719 78.550781 42.699219 C 78.917969 42.546875 79.121094 42.628906 79.679688 42.214844 C 83.925781 39.078125 86.691406 37.425781 88.429688 36.523438 C 90.167969 35.625 90.871094 35.457031 91.195312 35.554688 C 91.835938 35.742188 90.925781 36.90625 93.636719 35.457031 C 97.882812 33.230469 100.347656 32.1875 101.417969 31.777344 C 102.503906 31.390625 102.203125 31.648438 101.054688 32.332031 C 100.488281 32.683594 99.707031 33.140625 98.78125 33.671875 C 97.851562 34.199219 96.804688 34.851562 95.660156 35.523438 C 94.523438 36.203125 93.328125 36.972656 92.101562 37.734375 C 91.5 38.132812 90.894531 38.53125 90.289062 38.933594 C 89.6875 39.328125 89.082031 39.722656 88.507812 40.132812 C 73.882812 50.1875 61.09375 62.925781 50.945312 77.484375 C 50.363281 79.710938 46.1875 86.144531 42.433594 93.488281 C 40.550781 97.152344 38.730469 101.015625 37.335938 104.539062 C 36.976562 105.417969 36.667969 106.28125 36.359375 107.105469 C 36.210938 107.519531 36.0625 107.921875 35.917969 108.316406 C 35.789062 108.714844 35.660156 109.101562 35.535156 109.476562 C 35.292969 110.230469 35.074219 110.9375 34.882812 111.59375 C 34.699219 112.253906 34.554688 112.867188 34.429688 113.414062 C 35.460938 110.703125 36.625 108.027344 37.816406 105.363281 C 39.050781 102.714844 40.320312 100.085938 41.699219 97.53125 C 43.050781 94.960938 44.515625 92.476562 45.996094 90.042969 C 46.367188 89.4375 46.753906 88.84375 47.132812 88.246094 C 47.519531 87.652344 47.882812 87.050781 48.28125 86.472656 C 49.070312 85.3125 49.828125 84.148438 50.640625 83.039062 C 51.125 82.363281 51.570312 81.746094 51.972656 81.203125 C 52.386719 80.667969 52.753906 80.207031 53.066406 79.828125 C 53.6875 79.066406 54.085938 78.640625 54.183594 78.644531 C 54.28125 78.648438 54.082031 79.082031 53.503906 80.042969 C 52.910156 80.996094 51.976562 82.5 50.640625 84.652344 C 47.496094 89.800781 44.578125 95.273438 42.5 99.777344 C 48.804688 88.375 56.570312 78.011719 65.492188 68.917969 L 65.320312 69.132812 " fill-opacity="1" fill-rule="nonzero"/></g><path fill="#ff8f1f" d="M 67.335938 82.972656 C 69.328125 80.242188 71.566406 77.441406 74.03125 74.613281 C 76.5 71.78125 79.199219 68.925781 82.136719 66.109375 C 88.007812 60.46875 94.847656 54.976562 102.519531 50.078125 C 106.351562 47.632812 110.390625 45.324219 114.605469 43.21875 C 118.820312 41.121094 123.207031 39.21875 127.722656 37.542969 C 132.242188 35.867188 136.886719 34.425781 141.613281 33.234375 C 146.34375 32.054688 151.152344 31.132812 155.992188 30.472656 C 162.441406 29.570312 168.746094 29.234375 174.945312 29.28125 C 181.144531 29.390625 187.238281 29.882812 193.277344 30.890625 C 199.324219 31.871094 205.316406 33.347656 211.3125 35.308594 C 214.308594 36.296875 217.292969 37.429688 220.292969 38.679688 C 223.28125 39.949219 226.269531 41.371094 229.257812 42.929688 C 233.621094 45.238281 236.621094 47.078125 238.570312 48.363281 C 239.058594 48.683594 239.488281 48.960938 239.851562 49.207031 C 240.210938 49.460938 240.511719 49.675781 240.757812 49.855469 C 241.246094 50.21875 241.507812 50.4375 241.570312 50.535156 C 241.6875 50.726562 240.996094 50.429688 239.679688 49.789062 C 239.015625 49.476562 238.191406 49.089844 237.230469 48.640625 C 236.753906 48.410156 236.234375 48.179688 235.679688 47.941406 C 235.128906 47.699219 234.546875 47.445312 233.9375 47.175781 C 230.742188 45.835938 228.464844 45.074219 227.152344 44.777344 C 225.832031 44.488281 225.492188 44.632812 226.109375 45.222656 C 226.734375 45.804688 228.316406 46.835938 230.792969 48.425781 C 233.269531 50.015625 236.640625 52.175781 240.722656 55.160156 C 244.875 58.210938 246.625 59.980469 246.902344 60.546875 C 247.164062 61.132812 245.898438 60.601562 243.738281 59.445312 C 234.890625 54.828125 224.792969 50.71875 214.171875 48.105469 C 213.910156 48.039062 213.605469 47.953125 213.261719 47.851562 C 212.917969 47.757812 212.539062 47.648438 212.125 47.535156 C 211.304688 47.300781 210.375 47 209.382812 46.726562 C 208.394531 46.4375 207.359375 46.121094 206.332031 45.847656 C 205.816406 45.703125 205.3125 45.558594 204.816406 45.417969 C 204.316406 45.285156 203.832031 45.15625 203.367188 45.035156 C 201.875 44.613281 200.375 44.277344 198.894531 43.921875 C 197.402344 43.617188 195.925781 43.289062 194.449219 43.050781 C 192.976562 42.769531 191.5 42.578125 190.039062 42.359375 C 189.304688 42.269531 188.574219 42.183594 187.84375 42.09375 C 187.117188 42 186.386719 41.933594 185.65625 41.871094 C 179.839844 41.308594 174.09375 41.25 168.367188 41.460938 C 156.53125 41.964844 144.480469 44.027344 132.707031 47.984375 C 120.949219 51.941406 109.464844 57.761719 98.992188 65.476562 C 108.503906 57.820312 119.285156 51.609375 130.753906 47.152344 C 142.222656 42.6875 154.386719 39.996094 166.65625 39.128906 C 175.542969 38.492188 184.34375 38.761719 192.992188 39.921875 C 201.648438 41.078125 210.15625 43.164062 218.449219 46.171875 L 218.679688 45.617188 C 211.972656 42.765625 204.953125 40.484375 197.902344 38.851562 C 197.5625 38.769531 197.214844 38.6875 196.863281 38.601562 C 196.507812 38.527344 196.148438 38.453125 195.785156 38.378906 C 195.054688 38.230469 194.3125 38.066406 193.5625 37.921875 C 192.058594 37.652344 190.539062 37.359375 189.078125 37.144531 C 186.167969 36.660156 183.527344 36.335938 181.90625 36.039062 C 178.621094 35.464844 175.195312 35.074219 171.65625 34.90625 C 168.117188 34.753906 164.476562 34.808594 160.773438 35.089844 C 153.367188 35.632812 145.710938 37.140625 138.101562 39.519531 C 134.257812 40.722656 130.160156 42.195312 126.429688 43.800781 C 122.695312 45.394531 119.332031 47.113281 116.871094 48.574219 C 112.78125 51.042969 109.636719 53.085938 106.28125 55.167969 C 102.933594 57.265625 99.375 59.398438 94.679688 62.433594 C 93.988281 62.863281 93.246094 63.402344 92.421875 63.996094 C 91.59375 64.582031 90.726562 65.273438 89.785156 66.019531 C 89.550781 66.207031 89.3125 66.398438 89.070312 66.589844 C 88.832031 66.789062 88.589844 66.992188 88.34375 67.199219 C 87.855469 67.617188 87.347656 68.046875 86.824219 68.488281 C 86.316406 68.945312 85.792969 69.414062 85.253906 69.894531 C 84.984375 70.136719 84.707031 70.378906 84.4375 70.632812 C 84.167969 70.886719 83.898438 71.144531 83.621094 71.40625 C 83.074219 71.933594 82.496094 72.453125 81.941406 73.019531 C 81.378906 73.582031 80.804688 74.152344 80.21875 74.734375 C 79.648438 75.332031 79.066406 75.941406 78.472656 76.5625 C 77.875 77.175781 77.304688 77.835938 76.703125 78.484375 C 74.332031 81.113281 71.917969 83.992188 69.542969 87.09375 C 74.234375 80.511719 79.410156 74.589844 84.90625 69.304688 C 90.398438 64.019531 96.210938 59.367188 102.234375 55.335938 C 108.257812 51.300781 114.46875 47.832031 120.824219 44.960938 C 124 43.523438 127.207031 42.210938 130.441406 41.039062 C 133.675781 39.878906 136.9375 38.847656 140.21875 37.9375 C 140.882812 37.753906 141.542969 37.574219 142.191406 37.398438 C 142.839844 37.207031 143.492188 37.0625 144.136719 36.890625 C 144.78125 36.726562 145.414062 36.542969 146.054688 36.390625 C 146.695312 36.230469 147.332031 36.074219 147.972656 35.917969 L 148.933594 35.679688 C 149.253906 35.605469 149.578125 35.53125 149.898438 35.457031 C 150.546875 35.308594 151.195312 35.15625 151.851562 35.003906 C 152.511719 34.863281 153.171875 34.71875 153.847656 34.578125 C 154.519531 34.433594 155.199219 34.28125 155.898438 34.15625 C 156.59375 34.023438 157.300781 33.886719 158.023438 33.746094 C 158.742188 33.609375 159.480469 33.5 160.234375 33.367188 C 160.992188 33.238281 161.761719 33.109375 162.554688 33.007812 C 163.347656 32.894531 164.160156 32.78125 164.992188 32.667969 C 168.332031 32.253906 172.042969 31.921875 176.273438 31.789062 C 163.410156 31.277344 151.027344 32.632812 139.636719 35.46875 C 138.917969 35.632812 138.214844 35.832031 137.507812 36.015625 C 136.808594 36.210938 136.097656 36.378906 135.40625 36.585938 C 134.015625 36.996094 132.628906 37.390625 131.269531 37.839844 C 128.539062 38.695312 125.882812 39.671875 123.285156 40.679688 C 118.105469 42.738281 113.179688 45.023438 108.574219 47.566406 C 103.964844 50.097656 99.632812 52.800781 95.621094 55.664062 C 91.609375 58.523438 87.890625 61.5 84.46875 64.535156 C 77.621094 70.609375 71.960938 76.910156 67.335938 82.972656 " fill-opacity="1" fill-rule="nonzero"/><path fill="#ff8f1f" d="M 65.320312 69.132812 C 63.375 71.535156 61.007812 74.417969 58.667969 77.527344 C 56.335938 80.636719 54.035156 83.96875 52.082031 87.136719 C 51.09375 88.710938 50.226562 90.265625 49.4375 91.695312 C 49.054688 92.417969 48.703125 93.117188 48.375 93.78125 C 48.214844 94.113281 48.054688 94.433594 47.902344 94.75 C 47.757812 95.0625 47.625 95.371094 47.5 95.667969 C 46.460938 98.039062 46.003906 99.78125 46.273438 100.4375 C 46.289062 100.472656 46.167969 100.78125 45.941406 101.289062 C 45.722656 101.800781 45.410156 102.515625 45.027344 103.367188 C 44.839844 103.796875 44.621094 104.25 44.410156 104.742188 C 44.195312 105.230469 43.972656 105.746094 43.738281 106.277344 C 43.507812 106.808594 43.253906 107.351562 43.019531 107.917969 C 42.777344 108.476562 42.535156 109.046875 42.292969 109.617188 C 40.328125 114.164062 38.542969 118.820312 37.898438 118.785156 C 37.894531 118.789062 37.945312 118.960938 37.945312 118.960938 C 36.917969 120.183594 36.867188 119.0625 37.710938 115.90625 C 38.566406 112.765625 40.433594 107.625 43.644531 101.117188 C 49.378906 89.558594 56.738281 78.628906 65.453125 68.960938 C 65.492188 68.917969 65.320312 69.132812 65.320312 69.132812 " fill-opacity="1" fill-rule="nonzero"/><path fill="#ff8f1f" d="M 34.664062 164.578125 C 34.664062 163.632812 34.660156 162.710938 34.660156 161.8125 C 34.679688 160.914062 34.699219 160.039062 34.71875 159.183594 C 34.730469 158.332031 34.777344 157.503906 34.816406 156.695312 C 34.859375 155.886719 34.878906 155.101562 34.9375 154.332031 C 35.054688 152.800781 35.128906 151.347656 35.28125 149.972656 C 35.347656 149.285156 35.414062 148.613281 35.476562 147.957031 C 35.558594 147.304688 35.632812 146.667969 35.710938 146.046875 C 36.332031 141.082031 37.101562 137.132812 37.953125 133.628906 C 38.214844 132.609375 38.464844 131.757812 38.714844 131.011719 C 38.980469 130.269531 39.242188 129.632812 39.496094 129.042969 C 39.996094 127.863281 40.539062 126.882812 41.085938 125.609375 C 40.78125 126.816406 40.449219 128.117188 40.175781 129.449219 C 40.03125 130.117188 39.878906 130.785156 39.746094 131.449219 C 39.617188 132.121094 39.488281 132.78125 39.363281 133.429688 C 38.867188 136.027344 38.476562 138.40625 38.15625 139.9375 C 38.050781 140.410156 37.953125 140.875 37.851562 141.335938 C 37.761719 141.800781 37.671875 142.257812 37.582031 142.714844 C 37.402344 143.625 37.203125 144.523438 37.050781 145.429688 C 36.886719 146.332031 36.722656 147.238281 36.554688 148.15625 C 36.402344 149.078125 36.25 150.011719 36.09375 150.96875 C 35.511719 154.8125 34.96875 159.078125 34.664062 164.578125 " fill-opacity="1" fill-rule="nonzero"/><path fill="#ff8f1f" d="M 34.109375 195.511719 C 34.964844 199.40625 35.972656 203.273438 37.15625 207.089844 C 38.347656 210.90625 39.695312 214.675781 41.199219 218.386719 C 44.199219 225.816406 47.867188 232.988281 52.109375 239.824219 L 51.007812 238.734375 L 49.929688 237.621094 C 47.902344 234.175781 46.015625 230.65625 44.289062 227.058594 C 42.566406 223.460938 40.996094 219.796875 39.578125 216.082031 C 36.730469 208.648438 34.5625 200.980469 33.015625 193.214844 C 33.355469 193.988281 33.746094 194.75 34.109375 195.511719 " fill-opacity="1" fill-rule="nonzero"/><path fill="#ff8f1f" d="M 37.945312 118.960938 C 37.945312 118.960938 37.894531 118.789062 37.898438 118.785156 C 36.203125 124.460938 34.917969 130 33.863281 135.054688 C 32.804688 140.113281 31.992188 144.699219 31.1875 148.503906 C 31.175781 148.5625 31.167969 148.355469 31.164062 148.007812 C 31.164062 147.832031 31.164062 147.617188 31.164062 147.386719 C 31.171875 147.152344 31.179688 146.898438 31.1875 146.636719 C 31.226562 145.589844 31.285156 144.425781 31.332031 144.09375 C 32.765625 135.363281 34.992188 127.042969 37.945312 118.960938 " fill-opacity="1" fill-rule="nonzero"/><path fill="#ff8f1f" d="M 55.648438 58.511719 C 59.347656 54.546875 63.242188 50.777344 67.320312 47.222656 C 71.402344 43.675781 75.667969 40.347656 80.085938 37.246094 L 79.480469 38.105469 C 70.359375 44.734375 61.945312 52.363281 54.441406 60.820312 C 54.835938 60.046875 55.246094 59.285156 55.648438 58.511719 " fill-opacity="1" fill-rule="nonzero"/><path fill="#ff8f1f" d="M 128.394531 30.714844 C 123.777344 32.230469 119.242188 33.992188 114.8125 35.984375 C 110.382812 37.988281 106.0625 40.230469 101.871094 42.6875 L 101.773438 42.457031 C 105.96875 39.996094 110.296875 37.753906 114.730469 35.753906 C 119.167969 33.753906 123.710938 31.996094 128.335938 30.476562 L 128.394531 30.714844 " fill-opacity="1" fill-rule="nonzero"/><path fill="#ff8f1f" d="M 69.335938 254.128906 C 68.644531 253.300781 67.902344 252.453125 67.179688 251.574219 C 66.46875 250.6875 65.730469 249.808594 65.050781 248.929688 C 64.375 248.042969 63.707031 247.191406 63.113281 246.371094 C 62.527344 245.546875 61.988281 244.777344 61.527344 244.089844 C 60.503906 242.484375 59.734375 241.1875 59.09375 239.941406 C 58.773438 239.324219 58.464844 238.726562 58.148438 238.125 C 57.851562 237.515625 57.550781 236.902344 57.222656 236.253906 C 59.539062 239.882812 62.445312 243.753906 64.609375 246.683594 C 67.527344 250.636719 69.929688 253.855469 72.792969 257.21875 C 72.203125 256.722656 71.628906 256.207031 71.054688 255.6875 C 70.484375 255.167969 69.898438 254.660156 69.335938 254.128906 " fill-opacity="1" fill-rule="nonzero"/><path fill="#ff8f1f" d="M 101.472656 53.355469 C 102.363281 52.761719 103.277344 52.207031 104.179688 51.625 C 105.085938 51.054688 106.015625 50.523438 106.933594 49.972656 C 107.714844 49.515625 108.53125 49.132812 109.328125 48.710938 C 107.476562 49.738281 105.652344 50.816406 103.855469 51.921875 C 103.066406 52.421875 102.253906 52.859375 101.472656 53.355469 " fill-opacity="1" fill-rule="nonzero"/><path fill="#ff8f1f" d="M 60.527344 105.167969 C 60.070312 106.117188 59.648438 107 59.242188 107.851562 C 58.851562 108.710938 58.476562 109.542969 58.101562 110.375 C 57.785156 111.078125 57.4375 111.8125 57.097656 112.53125 C 57.433594 111.722656 57.730469 110.898438 58.105469 110.105469 C 58.472656 109.320312 58.847656 108.535156 59.234375 107.71875 C 59.640625 106.910156 60.066406 106.074219 60.527344 105.167969 " fill-opacity="1" fill-rule="nonzero"/><path fill="#ff8f1f" d="M 308.121094 146.238281 C 307.976562 145.425781 307.847656 144.617188 307.679688 143.808594 C 307.511719 143 307.359375 142.1875 307.246094 141.363281 C 306.9375 139.390625 306.734375 137.367188 306.40625 135.378906 C 306.601562 136.191406 306.832031 136.992188 307.015625 137.804688 C 307.199219 138.621094 307.375 139.441406 307.515625 140.28125 C 307.683594 141.253906 307.769531 142.25 307.875 143.242188 C 307.988281 144.238281 308.042969 145.242188 308.121094 146.238281 " fill-opacity="1" fill-rule="nonzero"/><g clip-path="url(#98f626a6e5)"><path fill="#2b8e06" d="M 278.324219 121.464844 L 261.96875 131.84375 C 266.105469 142.664062 268.457031 154.367188 268.457031 166.648438 C 268.457031 220.632812 224.691406 264.398438 170.703125 264.398438 C 116.714844 264.398438 72.949219 220.632812 72.949219 166.648438 C 72.949219 112.660156 116.714844 68.898438 170.703125 68.898438 C 197.917969 68.898438 222.492188 80.054688 240.210938 97.996094 L 256.9375 87.371094 L 257.605469 79.070312 C 235.269531 56.90625 204.582031 43.148438 170.703125 43.148438 C 102.601562 43.148438 47.199219 98.550781 47.199219 166.648438 C 47.199219 234.746094 102.601562 290.148438 170.703125 290.148438 C 238.804688 290.148438 294.207031 234.746094 294.207031 166.648438 C 294.207031 151.894531 291.550781 137.761719 286.773438 124.640625 L 278.324219 121.464844 " fill-opacity="1" fill-rule="nonzero"/></g><path fill="#2b8e06" d="M 222.730469 144.644531 C 225.613281 151.417969 227.316406 158.816406 227.316406 166.648438 C 227.316406 197.914062 201.96875 223.261719 170.703125 223.261719 C 139.4375 223.261719 114.089844 197.914062 114.089844 166.648438 C 114.089844 135.382812 139.4375 110.039062 170.703125 110.039062 C 187.003906 110.039062 201.605469 117.003906 211.933594 128.027344 L 230.253906 116.332031 C 215.921875 99.394531 194.578125 88.578125 170.703125 88.578125 C 127.65625 88.578125 92.632812 123.597656 92.632812 166.648438 C 92.632812 209.695312 127.65625 244.71875 170.703125 244.71875 C 213.75 244.71875 248.773438 209.695312 248.773438 166.648438 C 248.773438 154.613281 245.957031 143.25 241.066406 133.066406 L 222.730469 144.644531 " fill-opacity="1" fill-rule="nonzero"/><path fill="#2b8e06" d="M 186.453125 167.550781 C 185.980469 175.871094 179.144531 182.492188 170.703125 182.492188 C 161.949219 182.492188 154.859375 175.398438 154.859375 166.648438 C 154.859375 157.898438 161.949219 150.800781 170.703125 150.800781 C 172.253906 150.800781 173.707031 151.109375 175.113281 151.539062 L 195.273438 138.667969 C 188.699219 132.886719 180.117188 129.34375 170.703125 129.34375 C 150.136719 129.34375 133.402344 146.078125 133.402344 166.648438 C 133.402344 187.21875 150.136719 203.953125 170.703125 203.953125 C 191.269531 203.953125 208.003906 187.21875 208.003906 166.648438 C 208.003906 162.621094 207.308594 158.765625 206.117188 155.132812 L 186.453125 167.550781 " fill-opacity="1" fill-rule="nonzero"/><g clip-path="url(#3f35104775)"><path fill="#2b8e06" d="M 287.277344 120.242188 L 312.597656 104.171875 L 290.71875 96.632812 L 299.332031 91.195312 C 302.054688 89.460938 302.871094 85.847656 301.136719 83.117188 C 299.410156 80.390625 295.796875 79.585938 293.0625 81.316406 L 284.699219 86.65625 L 287.132812 64.09375 L 261.820312 80.171875 L 260.035156 102.40625 L 255.074219 105.574219 L 256.453125 92.765625 L 242.339844 101.730469 L 241.324219 114.351562 L 169.339844 160.316406 C 169.339844 160.316406 165.214844 162.738281 168.074219 167.617188 C 170.714844 172.097656 175.238281 169.554688 175.238281 169.554688 L 248.148438 123.515625 L 260.035156 127.984375 L 274.152344 119.027344 L 261.929688 114.8125 L 265.988281 112.25 L 287.277344 120.242188 " fill-opacity="1" fill-rule="nonzero"/></g></svg>